<?xml version="1.0" standalone="no"?>
<!DOCTYPE svg PUBLIC "-//W3C//DTD SVG 1.1//EN" "http://www.w3.org/Graphics/SVG/1.1/DTD/svg11.dtd" >
<svg xmlns="http://www.w3.org/2000/svg" xmlns:xlink="http://www.w3.org/1999/xlink" version="1.1">
<metadata>
Created by FontForge 20170731 at Thu Aug 16 18:11:13 2007
 By Aleksey,,,
(c) 1990, 2002 Adobe Systems Incorporated. All rights reserved.
</metadata>
<defs>
<font id="HelveticaNeueLTStd-BdCn" horiz-adv-x="480" >
  <font-face 
    font-family="HelveticaNeueLT Std Cn"
    font-weight="700"
    font-stretch="condensed"
    units-per-em="1000"
    panose-1="2 11 7 6 3 5 2 3 2 4"
    ascent="714"
    descent="-286"
    x-height="538"
    cap-height="714"
    bbox="-164 -224 1066 961"
    underline-thickness="50"
    underline-position="-200"
    unicode-range="U+0020-FB02"
  />
<missing-glyph horiz-adv-x="500" 
d="M0 0v700h500v-700h-500zM250 395l170 255h-340zM280 350l170 -255v510zM80 50h340l-170 255zM50 605v-510l170 255z" />
    <glyph glyph-name="f_i" unicode="fi" horiz-adv-x="537" 
d="M348 0v538h138v-538h-138zM348 604v118h138v-118h-138zM76 0v444h-70v94h70v61q0 70 36.5 99.5t107.5 29.5q36 0 74 -3v-98q-9 1 -27 1q-29 0 -41 -10t-12 -33v-47h80v-94h-80v-444h-138z" />
    <glyph glyph-name="f_l" unicode="fl" horiz-adv-x="537" 
d="M348 0v722h138v-722h-138zM76 0v444h-70v94h70v61q0 70 36.5 99.5t107.5 29.5q36 0 74 -3v-98q-9 1 -27 1q-29 0 -41 -10t-12 -33v-47h80v-94h-80v-444h-138z" />
    <glyph glyph-name=".notdef" horiz-adv-x="500" 
d="M0 0v700h500v-700h-500zM250 395l170 255h-340zM280 350l170 -255v510zM80 50h340l-170 255zM50 605v-510l170 255z" />
    <glyph glyph-name=".null" horiz-adv-x="0" 
 />
    <glyph glyph-name="nonmarkingreturn" horiz-adv-x="333" 
 />
    <glyph glyph-name="space" unicode=" " horiz-adv-x="240" 
 />
    <glyph glyph-name="exclam" unicode="!" horiz-adv-x="296" 
d="M198 199h-100l-19 283v232h138v-232zM79 132h138v-132h-138v132z" />
    <glyph glyph-name="quotedbl" unicode="&#x22;" horiz-adv-x="463" 
d="M267 393v321h124v-321h-124zM72 393v321h124v-321h-124z" />
    <glyph glyph-name="numbersign" unicode="#" 
d="M0 174v112h87l16 122h-73v112h86l22 174h96l-21 -174h97l22 174h97l-22 -174h73v-112h-86l-16 -122h73v-112h-86l-22 -174h-97l22 174h-98l-21 -174h-97l22 174h-74zM199 408l-15 -122h97l16 122h-98z" />
    <glyph glyph-name="dollar" unicode="$" 
d="M269 269v-177q58 13 58 80q0 66 -58 97zM205 442v160q-49 -15 -49 -76q0 -55 49 -84zM205 -101v87q-114 9 -155 62t-41 143v21h138q0 -51 11 -81t47 -39v202l-50 18q-137 49 -137 192q0 90 48.5 142t138.5 62v69h64v-69q185 -15 185 -189v-14h-138q-2 82 -47 97v-189
l79 -32q62 -26 92.5 -65t30.5 -116q0 -106 -50 -156.5t-152 -57.5v-87h-64z" />
    <glyph glyph-name="percent" unicode="%" horiz-adv-x="778" 
d="M557 181q0 -66 8 -92.5t36 -26.5t36 26.5t8 92.5q0 60 -8 85.5t-36 25.5t-36 -25.5t-8 -85.5zM451 177q0 103 30.5 147t119.5 44t119.5 -44t30.5 -147t-30.5 -147t-119.5 -44t-119.5 44t-30.5 147zM27 517q0 103 30.5 147t119.5 44t119.5 -44t30.5 -147t-30.5 -147
t-119.5 -44t-119.5 44t-30.5 147zM133 521q0 -66 8 -92.5t36 -26.5t36 26.5t8 92.5q0 60 -8 85.5t-36 25.5t-36 -25.5t-8 -85.5zM140 -31l406 756h89l-406 -756h-89z" />
    <glyph glyph-name="ampersand" unicode="&#x26;" horiz-adv-x="593" 
d="M201 568q0 -30 36 -78l17 -24l26 22q45 37 45 78q0 29 -17.5 44.5t-45.5 15.5q-26 0 -43.5 -15.5t-17.5 -42.5zM343 143l-120 170q-73 -57 -73 -121q0 -37 27 -65.5t73 -28.5q57 0 93 45zM319 380l107 -145q25 52 25 108h124q0 -107 -73 -211l94 -132h-153l-40 55
q-27 -32 -73 -50.5t-99 -18.5q-52 0 -92 14t-63.5 35t-38.5 50t-20 54.5t-5 52.5q0 117 144 206l-25 37q-29 42 -38.5 69.5t-9.5 59.5q0 69 50.5 109.5t131.5 40.5q88 0 133 -41.5t45 -107.5q0 -52 -30 -96t-94 -89z" />
    <glyph glyph-name="quotesingle" unicode="'" horiz-adv-x="260" 
d="M68 393v321h124v-321h-124z" />
    <glyph glyph-name="parenleft" unicode="(" horiz-adv-x="296" 
d="M190 714h106q-62 -112 -88 -216.5t-26 -232.5t26 -232.5t88 -216.5h-106q-140 223 -140 449t140 449z" />
    <glyph glyph-name="parenright" unicode=")" horiz-adv-x="296" 
d="M0 714h106q140 -223 140 -449t-140 -449h-106q62 112 88 216.5t26 232.5t-26 232.5t-88 216.5z" />
    <glyph glyph-name="asterisk" unicode="*" horiz-adv-x="390" 
d="M154 714h82v-128l122 40l25 -78l-122 -40l76 -104l-67 -48l-75 104l-75 -104l-67 48l76 104l-122 40l25 78l122 -40v128z" />
    <glyph glyph-name="plus" unicode="+" horiz-adv-x="600" 
d="M238 0v191h-191v124h191v191h124v-191h191v-124h-191v-191h-124z" />
    <glyph glyph-name="comma" unicode="," horiz-adv-x="240" 
d="M54 156h132v-130q0 -88 -28.5 -136t-103.5 -55v70q25 4 38.5 26.5t13.5 52.5v16h-52v156z" />
    <glyph glyph-name="hyphen" unicode="-" horiz-adv-x="370" 
d="M44 348h282v-118h-282v118z" />
    <glyph glyph-name="period" unicode="." horiz-adv-x="240" 
d="M54 156h132v-156h-132v156z" />
    <glyph glyph-name="slash" unicode="/" horiz-adv-x="332" 
d="M-3 -14l226 742h112l-226 -742h-112z" />
    <glyph glyph-name="zero" unicode="0" 
d="M162 376v-77q0 -133 15.5 -176t62.5 -43t62.5 49.5t15.5 188.5v77q0 133 -15.5 176t-62.5 43t-62.5 -49.5t-15.5 -188.5zM18 330q0 50 1 83.5t6 76.5t14 71.5t25 58.5t39.5 47.5t58 29t78.5 11.5q126 0 174 -76.5t48 -267.5q0 -43 -1 -73t-4 -68.5t-9.5 -65t-17 -56
t-27.5 -48.5t-39.5 -35.5t-53.5 -24t-70 -7.5q-126 0 -174 76.5t-48 267.5z" />
    <glyph glyph-name="one" unicode="1" 
d="M326 0h-144v500h-141v94h13q146 0 166 114h106v-708z" />
    <glyph glyph-name="two" unicode="2" 
d="M454 112v-112h-436q0 92 37.5 163.5t118.5 146.5l58 54q46 42 60 74t14 88q0 88 -70 88q-49 0 -64 -35t-16 -103h-138v27q0 205 220 205q105 0 158.5 -50t53.5 -143q0 -69 -24.5 -119.5t-85.5 -105.5l-80 -74q-60 -54 -73 -104h267z" />
    <glyph glyph-name="three" unicode="3" 
d="M20 207h138q2 -67 18 -97t61 -30q48 0 63.5 29.5t15.5 84.5q0 56 -19.5 88.5t-73.5 32.5h-48v94h47q42 0 62 32t20 80q0 49 -16.5 71t-52.5 22q-43 0 -58 -29t-15 -86h-132q0 103 53.5 156t154.5 53q204 0 204 -182q0 -63 -28.5 -104t-79.5 -52v-2q126 -19 126 -167
q0 -40 -10 -74.5t-33.5 -68t-72.5 -53t-119 -19.5q-101 0 -153 57.5t-52 160.5v3z" />
    <glyph glyph-name="four" unicode="4" 
d="M266 259v269h-2l-138 -269h140zM14 147v118l235 443h149v-449h68v-112h-68v-147h-132v147h-252z" />
    <glyph glyph-name="five" unicode="5" 
d="M425 694v-112h-261l-15 -161h2q39 53 130 53q49 0 84 -19t53.5 -52.5t27 -71.5t8.5 -83q0 -128 -49.5 -195t-177.5 -67q-64 0 -108 19t-64.5 51t-28.5 62t-8 65v19h138q0 -116 70 -116q84 0 84 138q0 88 -17 119t-66 31q-60 0 -68 -65h-129l26 385h369z" />
    <glyph glyph-name="six" unicode="6" 
d="M449 528h-138q0 86 -65 86q-28 0 -46 -13t-27 -39t-12 -55.5t-3 -72.5v-35h2q40 61 133 61q90 0 131.5 -59.5t41.5 -161.5q0 -253 -229 -253q-57 0 -99 18.5t-65.5 47.5t-37 74.5t-17.5 89t-4 101.5q0 42 0.5 66.5t2.5 62.5t6.5 61.5t13 54.5t20 49.5t29.5 39t41.5 31.5
t55 18.5t69.5 7.5q40 0 73.5 -9t62 -29t44.5 -56t17 -86zM165 220q1 -70 17 -105t62 -35q48 0 63 35t15 105q0 72 -18 103t-60 31q-43 0 -61 -31t-18 -103z" />
    <glyph glyph-name="seven" unicode="7" 
d="M22 694h436v-110q-84 -119 -137 -272.5t-71 -311.5h-151q42 328 221 570h-298v124z" />
    <glyph glyph-name="eight" unicode="8" 
d="M14 200q0 69 31 116t89 59v2q-52 14 -77 53t-25 83q0 195 208 195t208 -195q0 -44 -25 -83t-77 -53v-2q58 -12 89 -59t31 -116q0 -28 -4.5 -53.5t-19 -56t-38 -52.5t-66 -37t-98.5 -15t-98.5 15t-66 37t-38 52.5t-19 56t-4.5 53.5zM170 517q0 -48 19 -73.5t51 -25.5
t51 25.5t19 73.5q0 97 -70 97t-70 -97zM158 202q0 -122 82 -122t82 122t-82 122t-82 -122z" />
    <glyph glyph-name="nine" unicode="9" 
d="M31 165h138q0 -85 65 -85q28 0 46 13t27 39t12 55.5t3 72.5v34h-2q-40 -60 -133 -60q-90 0 -131.5 59.5t-41.5 161.5q0 253 229 253q57 0 99 -18.5t65.5 -47.5t37 -74.5t17.5 -89t4 -101.5q0 -42 -0.5 -67t-2.5 -63t-6.5 -61t-13 -54t-20 -49.5t-29.5 -39t-41.5 -31.5
t-55 -18.5t-69.5 -7.5q-55 0 -96.5 15.5t-70.5 57t-30 106.5zM158 474q0 -72 18 -103t60 -31q43 0 61 31t18 103q-1 70 -17 105t-62 35q-48 0 -63 -35t-15 -105z" />
    <glyph glyph-name="colon" unicode=":" horiz-adv-x="240" 
d="M54 0v156h132v-156h-132zM54 365v156h132v-156h-132z" />
    <glyph glyph-name="semicolon" unicode=";" horiz-adv-x="240" 
d="M54 156h132v-130q0 -88 -28.5 -136t-103.5 -55v70q25 4 38.5 26.5t13.5 52.5v16h-52v156zM54 521h132v-156h-132v156z" />
    <glyph glyph-name="less" unicode="&#x3c;" horiz-adv-x="600" 
d="M47 200v106l506 208v-124l-338 -137l338 -137v-124z" />
    <glyph glyph-name="equal" unicode="=" horiz-adv-x="600" 
d="M47 300v124h506v-124h-506zM47 82v124h506v-124h-506z" />
    <glyph glyph-name="greater" unicode="&#x3e;" horiz-adv-x="600" 
d="M47 -8v124l338 137l-338 137v124l506 -208v-106z" />
    <glyph glyph-name="question" unicode="?" horiz-adv-x="481" 
d="M168 493h-132v23q0 93 51 149.5t147 56.5q103 0 157 -51.5t54 -141.5q0 -85 -63 -156l-40 -45q-28 -31 -38.5 -54.5t-10.5 -60.5v-15h-124v39q0 49 14 83.5t48 73.5l38 43q38 42 38 106q0 39 -17.5 62t-50.5 23q-71 0 -71 -110v-25zM162 132h138v-132h-138v132z" />
    <glyph glyph-name="at" unicode="@" horiz-adv-x="800" 
d="M299 326q0 -34 20 -57.5t51 -23.5q49 0 82.5 40.5t33.5 87.5q0 31 -22 53.5t-53 22.5q-46 0 -79 -39.5t-33 -83.5zM522 488l13 53h88l-58 -250q-6 -27 -6 -41q0 -20 20 -20q34 0 69 50.5t35 123.5q0 98 -79.5 164t-186.5 66q-115 0 -195.5 -84t-80.5 -194
q0 -113 84 -194.5t199 -81.5q112 0 217 64h89q-111 -158 -330 -158q-154 0 -262.5 108.5t-108.5 262.5t108.5 262.5t262.5 108.5t262.5 -84.5t108.5 -218.5q0 -60 -20 -110.5t-49.5 -82t-65 -53.5t-65.5 -31t-51 -9q-60 0 -65 53h-2q-49 -53 -120 -53q-57 0 -101.5 47
t-44.5 123q0 97 60 171.5t154 74.5q80 0 121 -67z" />
    <glyph glyph-name="A" unicode="A" horiz-adv-x="556" 
d="M0 0l189 714h178l189 -714h-150l-33 151h-190l-33 -151h-150zM277 590l-69 -321h140l-69 321h-2z" />
    <glyph glyph-name="B" unicode="B" horiz-adv-x="556" 
d="M50 0v714h241q203 0 203 -181q0 -59 -28 -100t-80 -56v-2q60 -8 95 -52t35 -114q0 -93 -52.5 -151t-170.5 -58h-243zM194 608v-187h41q60 0 87.5 22t27.5 72t-25 71.5t-79 21.5h-52zM194 321v-215h56q56 0 86 24.5t30 83.5q0 107 -110 107h-62z" />
    <glyph glyph-name="C" unicode="C" horiz-adv-x="537" 
d="M499 473h-144q0 80 -19 114.5t-67 34.5q-53 0 -71.5 -59.5t-18.5 -215.5q0 -106 10.5 -162.5t29.5 -74.5t52 -18q29 0 47 12.5t30.5 53.5t12.5 115h144q0 -63 -9.5 -110.5t-33 -89.5t-70 -64.5t-114.5 -22.5q-63 0 -108 18.5t-71 48.5t-40.5 80.5t-19 100.5t-4.5 123
t4.5 123t19 100.5t40.5 80.5t71 48.5t108 18.5q59 0 102 -17.5t65 -41.5t35 -62t16 -67t3 -67z" />
    <glyph glyph-name="D" unicode="D" horiz-adv-x="574" 
d="M57 0v714h236q59 0 101.5 -16.5t68 -44.5t40.5 -73.5t20.5 -95t5.5 -117.5q0 -197 -53 -282t-192 -85h-227zM201 608v-502h64q73 0 96.5 53.5t23.5 203.5q0 134 -23 189.5t-100 55.5h-61z" />
    <glyph glyph-name="E" unicode="E" horiz-adv-x="481" 
d="M50 714h399v-118h-255v-168h240v-118h-240v-192h265v-118h-409v714z" />
    <glyph glyph-name="F" unicode="F" horiz-adv-x="463" 
d="M50 0v714h399v-118h-255v-168h240v-118h-240v-310h-144z" />
    <glyph glyph-name="G" unicode="G" horiz-adv-x="556" 
d="M505 502h-138q0 46 -21 83t-61 37q-52 0 -75 -58t-23 -192q0 -143 20.5 -211.5t78.5 -68.5q30 0 59.5 30.5t29.5 83.5v73h-95v106h233v-385h-106v66h-2q-49 -80 -150 -80q-65 0 -107.5 23.5t-65 74.5t-31 116.5t-8.5 164.5q0 188 53.5 275.5t186.5 87.5q116 0 169 -57
t53 -169z" />
    <glyph glyph-name="H" unicode="H" horiz-adv-x="556" 
d="M50 0v714h144v-273h168v273h144v-714h-144v317h-168v-317h-144z" />
    <glyph glyph-name="I" unicode="I" horiz-adv-x="258" 
d="M201 0h-144v714h144v-714z" />
    <glyph glyph-name="J" unicode="J" horiz-adv-x="463" 
d="M275 714h144v-514q0 -113 -52 -163.5t-163 -50.5q-105 0 -147 56.5t-42 152.5v31h132v-22q0 -60 13.5 -86t50.5 -26t50.5 26t13.5 86v510z" />
    <glyph glyph-name="K" unicode="K" horiz-adv-x="537" 
d="M50 714h144v-286h2l182 286h156l-194 -306l216 -408h-162l-147 293l-53 -81v-212h-144v714z" />
    <glyph glyph-name="L" unicode="L" horiz-adv-x="463" 
d="M449 0h-399v714h144v-596h255v-118z" />
    <glyph glyph-name="M" unicode="M" horiz-adv-x="740" 
d="M53 0v714h214l102 -504h2l103 504h213v-714h-132v570h-2l-127 -570h-112l-127 570h-2v-570h-132z" />
    <glyph glyph-name="N" unicode="N" horiz-adv-x="574" 
d="M50 714h166l174 -489h2v489h132v-714h-164l-176 500h-2v-500h-132v714z" />
    <glyph glyph-name="O" unicode="O" horiz-adv-x="556" 
d="M35 357q0 73 4.5 123t19 100.5t40.5 80.5t71 48.5t108 18.5t108 -18.5t71 -48.5t40.5 -80.5t19 -100.5t4.5 -123t-4.5 -123t-19 -100.5t-40.5 -80.5t-71 -48.5t-108 -18.5t-108 18.5t-71 48.5t-40.5 80.5t-19 100.5t-4.5 123zM179 357q0 -152 19 -208.5t80 -56.5t80 56.5
t19 208.5q0 151 -19 208t-80 57t-80 -57t-19 -208z" />
    <glyph glyph-name="P" unicode="P" horiz-adv-x="519" 
d="M50 0v714h252q69 0 115 -32t63.5 -78t17.5 -104q0 -108 -60.5 -161.5t-166.5 -53.5h-77v-285h-144zM194 608v-217h64q44 0 70 27t26 80q0 110 -100 110h-60z" />
    <glyph glyph-name="Q" unicode="Q" horiz-adv-x="556" 
d="M543 -11l-85 -77l-85 88q-21 -8 -44 -11t-51 -3q-63 0 -108 18.5t-71 48.5t-40.5 80.5t-19 100.5t-4.5 123t4.5 123t19 100.5t40.5 80.5t71 48.5t108 18.5t108 -18.5t71 -48.5t40.5 -80.5t19 -100.5t4.5 -123q0 -104 -11 -173.5t-44 -116.5zM179 357q0 -152 19 -208.5
t80 -56.5t80 56.5t19 208.5q0 151 -19 208t-80 57t-80 -57t-19 -208z" />
    <glyph glyph-name="R" unicode="R" horiz-adv-x="556" 
d="M194 608v-206h60q108 0 108 107q0 99 -100 99h-68zM50 0v714h266q90 0 140 -47t50 -137q0 -151 -119 -176v-2q71 -9 92 -54t23 -164q1 -62 7 -90t25 -38v-6h-156q-16 23 -18 75l-4 137q-3 90 -85 90h-77v-302h-144z" />
    <glyph glyph-name="S" unicode="S" horiz-adv-x="519" 
d="M22 223h144v-21q0 -55 20.5 -82.5t74.5 -27.5q36 0 61 23t25 65q0 47 -27 71.5t-101 50.5q-100 34 -143.5 82t-43.5 134q0 102 58.5 156t162.5 54q102 0 161.5 -47t59.5 -145v-20h-138q0 106 -78 106q-82 0 -82 -83q0 -35 15 -56.5t59 -40.5l111 -48q78 -34 107 -77
t29 -112q0 -219 -248 -219q-119 0 -173 53t-54 155v29z" />
    <glyph glyph-name="T" unicode="T" 
d="M12 714h456v-118h-156v-596h-144v596h-156v118z" />
    <glyph glyph-name="U" unicode="U" horiz-adv-x="538" 
d="M41 714h144v-498q0 -59 18.5 -91.5t65.5 -32.5t65.5 32.5t18.5 91.5v498h144v-498q0 -66 -18.5 -112.5t-52 -71t-72 -35.5t-85.5 -11q-48 0 -85.5 9.5t-71.5 33.5t-52.5 71t-18.5 116v498z" />
    <glyph glyph-name="V" unicode="V" horiz-adv-x="519" 
d="M3 714h154l101 -528h3l106 528h149l-164 -714h-185z" />
    <glyph glyph-name="W" unicode="W" horiz-adv-x="760" 
d="M138 0l-130 714h138l79 -528h2l84 528h138l84 -528h2l79 528h138l-130 -714h-161l-80 518h-2l-80 -518h-161z" />
    <glyph glyph-name="X" unicode="X" horiz-adv-x="537" 
d="M184 361l-164 353h159l92 -231l91 231h157l-166 -353l178 -361h-162l-103 242l-102 -242h-158z" />
    <glyph glyph-name="Y" unicode="Y" horiz-adv-x="520" 
d="M3 714h162l94 -276h2l100 276h156l-185 -433v-281h-144v281z" />
    <glyph glyph-name="Z" unicode="Z" horiz-adv-x="481" 
d="M24 0v105l263 491h-245v118h411v-109l-267 -487h271v-118h-433z" />
    <glyph glyph-name="bracketleft" unicode="[" horiz-adv-x="315" 
d="M80 -184v898h229v-100h-105v-698h105v-100h-229z" />
    <glyph glyph-name="backslash" unicode="\" horiz-adv-x="332" 
d="M223 -14l-226 742h112l226 -742h-112z" />
    <glyph glyph-name="bracketright" unicode="]" horiz-adv-x="315" 
d="M6 -184v100h105v698h-105v100h229v-898h-229z" />
    <glyph glyph-name="asciicircum" unicode="^" horiz-adv-x="600" 
d="M180 309h-124l188 385h112l188 -385h-124l-120 247z" />
    <glyph glyph-name="underscore" unicode="_" horiz-adv-x="500" 
d="M500 -125h-500v50h500v-50z" />
    <glyph glyph-name="grave" unicode="`" horiz-adv-x="222" 
d="M176 601h-94l-98 144h138z" />
    <glyph glyph-name="a" unicode="a" horiz-adv-x="481" 
d="M169 373h-124v13q0 87 52 126.5t137 39.5q114 0 154.5 -41.5t40.5 -123.5v-283q0 -66 17 -104h-132q-8 15 -17 56h-2q-23 -40 -54 -55t-83 -15q-66 0 -98 46t-32 108q0 74 31.5 111t104.5 57l78 21q31 8 43 22t12 41q0 66 -64 66q-31 0 -47.5 -19t-16.5 -51v-15zM297 163
v106q-26 -19 -59 -27q-41 -9 -59.5 -30t-18.5 -57q0 -33 13 -54t39 -21q32 0 58.5 21t26.5 62z" />
    <glyph glyph-name="b" unicode="b" horiz-adv-x="500" 
d="M184 269q0 -94 15 -135.5t58 -41.5t57.5 41.5t14.5 135.5t-14.5 135.5t-57.5 41.5t-58 -41.5t-15 -135.5zM46 0v714h138v-226h2q43 64 116 64q85 0 125 -67t40 -216t-40 -216t-125 -67q-79 0 -122 71h-2v-57h-132z" />
    <glyph glyph-name="c" unicode="c" horiz-adv-x="463" 
d="M437 344h-132q0 108 -62 108q-48 0 -63.5 -41.5t-15.5 -142.5q0 -105 14.5 -146.5t59.5 -41.5q67 0 67 126h132q0 -109 -49 -164.5t-156 -55.5t-156.5 63t-49.5 220q0 156 57 219.5t161 63.5q94 0 143.5 -55.5t49.5 -152.5z" />
    <glyph glyph-name="d" unicode="d" horiz-adv-x="500" 
d="M171 269q0 -94 14.5 -135.5t57.5 -41.5t58 41.5t15 135.5t-15 135.5t-58 41.5t-57.5 -41.5t-14.5 -135.5zM322 0v57h-2q-43 -71 -122 -71q-85 0 -125 67t-40 216t40 216t125 67q73 0 116 -64h2v226h138v-714h-132z" />
    <glyph glyph-name="e" unicode="e" horiz-adv-x="463" 
d="M437 248h-273v-43q0 -53 16.5 -89t51.5 -36q33 0 50 24.5t23 76.5h124q-8 -195 -195 -195q-42 0 -74.5 9.5t-54 23.5t-37 38.5t-23.5 46.5t-12.5 55t-5.5 56.5t-1 58.5q0 48 4 85t17.5 75t36.5 62.5t62.5 40t93.5 15.5q113 0 155 -68.5t42 -204.5v-31zM164 330h141
q-2 68 -16 98t-54 30q-38 0 -54.5 -31.5t-16.5 -75.5v-21z" />
    <glyph glyph-name="f" unicode="f" horiz-adv-x="296" 
d="M76 0v444h-70v94h70v61q0 70 36.5 99.5t107.5 29.5q36 0 74 -3v-98q-9 1 -27 1q-29 0 -41 -10t-12 -33v-47h80v-94h-80v-444h-138z" />
    <glyph glyph-name="g" unicode="g" horiz-adv-x="500" 
d="M317 538h132v-511q0 -108 -52.5 -159.5t-171.5 -51.5q-88 0 -135.5 37.5t-47.5 106.5h132q0 -26 21 -41q22 -15 46 -15q76 0 76 97v71h-2q-46 -66 -115 -66q-84 0 -124.5 63.5t-40.5 208.5q0 55 6 97t22 85.5t52 67.5t89 24q77 0 111 -74h2v60zM173 252q0 -140 69 -140
q75 0 75 154q0 100 -15.5 140t-56.5 40q-44 0 -58 -40.5t-14 -153.5z" />
    <glyph glyph-name="h" unicode="h" horiz-adv-x="500" 
d="M46 0v714h138v-231h2q39 69 131 69q137 0 137 -153v-399h-138v371q0 40 -14 57.5t-45 17.5q-73 0 -73 -89v-357h-138z" />
    <glyph glyph-name="i" unicode="i" horiz-adv-x="240" 
d="M51 0v538h138v-538h-138zM51 604v118h138v-118h-138z" />
    <glyph glyph-name="j" unicode="j" horiz-adv-x="240" 
d="M51 10v528h138v-575q0 -71 -34.5 -105t-123.5 -34q-16 0 -56 2v100q7 -2 22 -2q34 0 44 18.5t10 67.5zM51 604v118h138v-118h-138z" />
    <glyph glyph-name="k" unicode="k" horiz-adv-x="500" 
d="M51 714h138v-377h2l139 201h152l-155 -212l178 -326h-152l-115 221l-49 -64v-157h-138v714z" />
    <glyph glyph-name="l" unicode="l" horiz-adv-x="240" 
d="M51 0v714h138v-714h-138z" />
    <glyph glyph-name="m" unicode="m" horiz-adv-x="758" 
d="M46 0v538h132v-55h2q49 69 136 69q47 0 80 -22.5t44 -63.5h2q32 86 136 86q134 0 134 -161v-391h-138v376q0 70 -54 70q-34 0 -53 -23.5t-19 -68.5v-354h-138v376q0 70 -54 70q-34 0 -53 -23.5t-19 -68.5v-354h-138z" />
    <glyph glyph-name="n" unicode="n" horiz-adv-x="500" 
d="M46 0v538h132v-63h2q42 77 137 77q137 0 137 -153v-399h-138v371q0 40 -14 57.5t-45 17.5q-73 0 -73 -89v-357h-138z" />
    <glyph glyph-name="o" unicode="o" 
d="M28 269q0 143 48.5 213t163.5 70q119 2 165.5 -66.5t46.5 -216.5q0 -143 -48.5 -213t-163.5 -70q-119 -2 -165.5 66.5t-46.5 216.5zM166 269q0 -48 2 -77t9 -57.5t22.5 -41.5t40.5 -13q41 0 57.5 43.5t16.5 145.5t-16.5 145.5t-57.5 43.5q-25 0 -40.5 -13t-22.5 -41.5
t-9 -57.5t-2 -77z" />
    <glyph glyph-name="p" unicode="p" horiz-adv-x="500" 
d="M184 269q0 -94 15 -135.5t58 -41.5t57.5 41.5t14.5 135.5t-14.5 135.5t-57.5 41.5t-58 -41.5t-15 -135.5zM46 -176v714h132v-57h2q43 71 122 71q85 0 125 -67t40 -216t-40 -216t-125 -67q-73 0 -116 64h-2v-226h-138z" />
    <glyph glyph-name="q" unicode="q" horiz-adv-x="500" 
d="M316 269q0 94 -15 135.5t-58 41.5t-57.5 -41.5t-14.5 -135.5t14.5 -135.5t57.5 -41.5t58 41.5t15 135.5zM316 -176v226h-2q-43 -64 -116 -64q-85 0 -125 67t-40 216t40 216t125 67q79 0 122 -71h2v57h132v-714h-138z" />
    <glyph glyph-name="r" unicode="r" horiz-adv-x="333" 
d="M46 0v538h132v-72h2q46 86 124 86q9 0 25 -2v-132q-28 2 -43 2q-42 0 -72 -23.5t-30 -73.5v-323h-138z" />
    <glyph glyph-name="s" unicode="s" horiz-adv-x="444" 
d="M23 176h124v-18q0 -36 18.5 -57t53.5 -21q32 0 51 16.5t19 47.5q0 42 -50 61l-97 35q-115 41 -115 150q0 72 48.5 117t149.5 45q184 0 184 -153v-22h-124q0 42 -14 61.5t-47 19.5q-28 0 -46.5 -15.5t-18.5 -42.5q0 -43 60 -63l83 -28q65 -22 92 -57.5t27 -96.5
q0 -82 -55 -125.5t-145 -43.5q-110 0 -154 43.5t-44 127.5v19z" />
    <glyph glyph-name="t" unicode="t" horiz-adv-x="296" 
d="M76 538v154h138v-154h80v-94h-80v-291q0 -33 10 -46t39 -13q13 0 31 2v-96q-60 -6 -90 -6q-79 0 -103.5 29t-24.5 113v308h-70v94h70z" />
    <glyph glyph-name="u" unicode="u" horiz-adv-x="500" 
d="M322 0v63h-2q-42 -77 -137 -77q-137 0 -137 153v399h138v-371q0 -40 14 -57.5t45 -17.5q73 0 73 89v357h138v-538h-132z" />
    <glyph glyph-name="v" unicode="v" horiz-adv-x="444" 
d="M228 153l73 385h138l-135 -538h-160l-139 538h144l77 -385h2z" />
    <glyph glyph-name="w" unicode="w" horiz-adv-x="704" 
d="M124 0l-117 538h138l63 -382h2l67 382h150l71 -382h2l65 382h132l-116 -538h-157l-71 382h-2l-67 -382h-160z" />
    <glyph glyph-name="x" unicode="x" horiz-adv-x="462" 
d="M231 376l74 162h144l-140 -261l146 -277h-144l-80 176l-80 -176h-144l146 277l-140 261h144z" />
    <glyph glyph-name="y" unicode="y" horiz-adv-x="444" 
d="M46 -176v103q18 -3 36 -3q68 0 74 76l-151 538h144l80 -372h2l70 372h138l-130 -502q-19 -73 -34.5 -112t-39.5 -63t-53 -30.5t-80 -6.5h-56z" />
    <glyph glyph-name="z" unicode="z" horiz-adv-x="426" 
d="M24 0v106l215 320h-205v112h368v-106l-215 -320h215v-112h-378z" />
    <glyph glyph-name="braceleft" unicode="{" horiz-adv-x="315" 
d="M30 224v82q26 0 46 23.5t20 57.5v193q0 64 26.5 99t77.5 35h89v-100h-30q-39 0 -39 -72v-166q0 -44 -20 -74t-52 -36v-2q32 -6 52 -36t20 -74v-166q0 -72 39 -72h30v-100h-89q-51 0 -77.5 35t-26.5 99v193q0 34 -20 57.5t-46 23.5z" />
    <glyph glyph-name="bar" unicode="|" horiz-adv-x="222" 
d="M49 -14v742h124v-742h-124z" />
    <glyph glyph-name="braceright" unicode="}" horiz-adv-x="315" 
d="M26 -184v100h30q39 0 39 72v166q0 44 20 74t52 36v2q-32 6 -52 36t-20 74v166q0 72 -39 72h-30v100h89q51 0 77.5 -35t26.5 -99v-193q0 -34 20 -57.5t46 -23.5v-82q-26 0 -46 -23.5t-20 -57.5v-193q0 -64 -26.5 -99t-77.5 -35h-89z" />
    <glyph glyph-name="asciitilde" unicode="~" horiz-adv-x="600" 
d="M495 349l36 -106q-46 -86 -123 -86q-52 0 -118 34q-67 34 -95 34q-27 0 -53.5 -23t-36.5 -45l-36 106q46 86 123 86q53 0 109 -29q74 -39 104 -39q27 0 53.5 23t36.5 45z" />
    <glyph glyph-name="uni00A0" unicode="&#xa0;" horiz-adv-x="240" 
 />
    <glyph glyph-name="exclamdown" unicode="&#xa1;" horiz-adv-x="296" 
d="M79 -176v232l19 283h100l19 -283v-232h-138zM79 406v132h138v-132h-138z" />
    <glyph glyph-name="cent" unicode="&#xa2;" 
d="M222 86v366q-31 -11 -41 -53.5t-10 -127.5q0 -54 1.5 -83t13.5 -62t36 -40zM222 -102v88q-43 2 -75 15t-59 42.5t-41 85.5t-14 136q0 49 4.5 87t16.5 75t32.5 62.5t55 42.5t80.5 20v76h52v-76q36 -3 64 -12t54 -30.5t40.5 -62.5t14.5 -99h-132q0 89 -41 104v-366
q41 24 41 123h132q0 -101 -41.5 -157t-131.5 -66v-88h-52z" />
    <glyph glyph-name="sterling" unicode="&#xa3;" 
d="M9 306v82h67q-45 87 -45 142q0 79 55 128.5t159 49.5q214 0 218 -207h-132q0 113 -78 113q-44 0 -64 -22.5t-20 -56.5q0 -38 26 -90l28 -57h167v-82h-141q5 -13 5 -39q0 -44 -20 -79.5t-70 -76.5l4 -2q24 7 45 7q13 0 54.5 -15t59.5 -15q40 0 104 42l44 -94
q-74 -48 -149 -48q-22 0 -86 18t-96 18q-42 0 -98 -28l-41 86q53 34 85 80.5t32 96.5q0 22 -11 49h-102z" />
    <glyph glyph-name="currency" unicode="&#xa4;" 
d="M61 107l-61 62l50 50q-39 59 -39 128q0 70 39 128l-50 50l61 62l51 -50q58 39 128 39t128 -39l51 50l61 -62l-50 -50q39 -58 39 -128t-39 -128l50 -50l-61 -62l-51 51q-58 -40 -128 -40q-71 0 -128 40zM117 347q0 -60 33.5 -94.5t89.5 -34.5t89.5 34.5t33.5 94.5
t-33.5 94.5t-89.5 34.5t-89.5 -34.5t-33.5 -94.5z" />
    <glyph glyph-name="yen" unicode="&#xa5;" 
d="M178 0v159h-142v82h142v43l-11 23h-131v82h92l-145 305h149l107 -269h2l112 269h144l-145 -305h92v-82h-131l-11 -23v-43h142v-82h-142v-159h-124z" />
    <glyph glyph-name="brokenbar" unicode="&#xa6;" horiz-adv-x="222" 
d="M49 -14v271h124v-271h-124zM49 457v271h124v-271h-124z" />
    <glyph glyph-name="section" unicode="&#xa7;" horiz-adv-x="481" 
d="M38 37h132v-15q0 -37 19.5 -58.5t50.5 -21.5q33 0 49.5 19.5t16.5 47.5q0 53 -64 84l-123 59q-106 52 -106 154q0 46 24 84t66 59q-60 45 -60 114q0 85 56.5 125t148.5 40q97 0 143.5 -43.5t46.5 -118.5h-132q0 31 -14 49q-15 19 -55 19q-28 0 -45 -16t-17 -41
q0 -39 64 -69l119 -56q110 -52 110 -163q0 -39 -22 -80.5t-56 -61.5q54 -43 54 -124q0 -88 -53 -131.5t-151 -43.5q-100 0 -151 46t-51 128v15zM165 272l99 -54q24 -14 39 -25q47 39 47 75q0 26 -15 44t-53 38l-96 51q-55 -33 -55 -75q0 -35 34 -54z" />
    <glyph glyph-name="dieresis" unicode="&#xa8;" horiz-adv-x="222" 
d="M-31 610v118h112v-118h-112zM141 610v118h112v-118h-112z" />
    <glyph glyph-name="copyright" unicode="&#xa9;" horiz-adv-x="800" 
d="M495 298h100q-11 -72 -62 -114t-118 -42q-93 0 -150 62.5t-57 155.5q0 95 55 156.5t149 61.5q70 0 120 -40.5t59 -112.5h-96q-17 67 -88 67q-50 0 -77.5 -36.5t-27.5 -95.5q0 -56 28.5 -94t75.5 -38q36 0 60 19t29 51zM141 357q0 -110 74.5 -187.5t184.5 -77.5
t184.5 77.5t74.5 187.5t-74.5 187.5t-184.5 77.5t-184.5 -77.5t-74.5 -187.5zM29 357q0 154 108.5 262.5t262.5 108.5t262.5 -108.5t108.5 -262.5t-108.5 -262.5t-262.5 -108.5t-262.5 108.5t-108.5 262.5z" />
    <glyph glyph-name="ordfeminine" unicode="&#xaa;" horiz-adv-x="314" 
d="M293 609v-172q0 -39 11 -63h-100q-3 5 -11 35q-16 -25 -36.5 -33.5t-57.5 -8.5q-46 0 -67.5 27t-21.5 65q0 46 20.5 69t68.5 33l58 12q36 8 36 34q0 37 -37 37q-20 0 -30.5 -11t-10.5 -28v-9h-94v13q0 99 137 99q80 0 107.5 -25t27.5 -74zM193 478v59q-15 -11 -35 -15
q-48 -10 -48 -49q0 -42 32 -42q19 0 35 12t16 35z" />
    <glyph glyph-name="guillemotleft" unicode="&#xab;" horiz-adv-x="426" 
d="M225 208v162l149 120v-132l-79 -69l79 -69v-132zM52 208v162l149 120v-132l-79 -69l79 -69v-132z" />
    <glyph glyph-name="logicalnot" unicode="&#xac;" horiz-adv-x="600" 
d="M429 98v202h-382v124h506v-326h-124z" />
    <glyph glyph-name="uni00AD" unicode="&#xad;" horiz-adv-x="370" 
d="M44 348h282v-118h-282v118z" />
    <glyph glyph-name="registered" unicode="&#xae;" horiz-adv-x="800" 
d="M255 157v400h156q154 0 154 -124q0 -48 -28 -76.5t-71 -34.5l99 -165h-96l-94 161h-32v-161h-88zM343 487v-99h67q33 0 50 10t17 40q0 49 -76 49h-58zM29 357q0 154 108.5 262.5t262.5 108.5t262.5 -108.5t108.5 -262.5t-108.5 -262.5t-262.5 -108.5t-262.5 108.5
t-108.5 262.5zM141 357q0 -110 74.5 -187.5t184.5 -77.5t184.5 77.5t74.5 187.5t-74.5 187.5t-184.5 77.5t-184.5 -77.5t-74.5 -187.5z" />
    <glyph glyph-name="macron" unicode="&#xaf;" horiz-adv-x="222" 
d="M-36 714h294v-76h-294v76z" />
    <glyph glyph-name="degree" unicode="&#xb0;" horiz-adv-x="400" 
d="M52 560q0 62 43 105t105 43t105 -43t43 -105t-43 -105t-105 -43t-105 43t-43 105zM128 560q0 -30 21 -51t51 -21t51 21t21 51t-21 51t-51 21t-51 -21t-21 -51z" />
    <glyph glyph-name="plusminus" unicode="&#xb1;" horiz-adv-x="600" 
d="M238 398v108h124v-108h191v-124h-191v-108h-124v108h-191v124h191zM47 0v124h506v-124h-506z" />
    <glyph glyph-name="twosuperior" unicode="&#xb2;" horiz-adv-x="312" 
d="M312 280h-312q0 116 101 188l50 36q49 36 49 81q0 20 -12 33.5t-31 13.5q-49 0 -51 -73h-106v25q0 124 160 124q77 0 114.5 -28.5t37.5 -79.5q0 -43 -14 -72t-52 -58l-57 -44q-46 -35 -53 -64h176v-82z" />
    <glyph glyph-name="threesuperior" unicode="&#xb3;" horiz-adv-x="312" 
d="M0 416h106q2 -67 49 -67q45 0 45 53q0 63 -60 63h-28v70h28q27 0 40.5 15.5t13.5 37.5q0 19 -11.5 31.5t-29.5 12.5q-46 0 -46 -60h-100q0 68 36 103q34 33 109 33q148 0 148 -109q0 -39 -18.5 -63.5t-51.5 -31.5v-2q82 -14 82 -100q0 -129 -169 -129q-143 0 -143 133v10
z" />
    <glyph glyph-name="acute" unicode="&#xb4;" horiz-adv-x="222" 
d="M46 601l54 144h138l-98 -144h-94z" />
    <glyph glyph-name="mu" unicode="&#xb5;" horiz-adv-x="500" 
d="M316 181v357h138v-538h-132v63h-2q-21 -38 -50 -57.5t-56 -19.5q-18 0 -30 8v-170h-138v714h138v-371q0 -40 14 -57.5t45 -17.5q73 0 73 89z" />
    <glyph glyph-name="paragraph" unicode="&#xb6;" 
d="M182 -138v473q-88 0 -134.5 48t-46.5 138q0 108 50.5 150.5t147.5 42.5h268v-852h-106v758h-73v-758h-106z" />
    <glyph glyph-name="periodcentered" unicode="&#xb7;" horiz-adv-x="240" 
d="M23 282q0 40 28.5 68.5t68.5 28.5t68.5 -28.5t28.5 -68.5t-28.5 -68.5t-68.5 -28.5t-68.5 28.5t-28.5 68.5z" />
    <glyph glyph-name="cedilla" unicode="&#xb8;" horiz-adv-x="222" 
d="M93 0h54l-38 -61q20 5 33 5q32 0 58 -20.5t26 -53.5q0 -44 -33 -69t-93 -25q-66 0 -100 19l19 46q26 -15 69 -15q21 0 35.5 10t14.5 24q0 15 -12 24.5t-32 9.5q-18 0 -34 -6l-22 20z" />
    <glyph glyph-name="onesuperior" unicode="&#xb9;" horiz-adv-x="312" 
d="M115 280v290h-91v70h8q96 0 109 68h86v-428h-112z" />
    <glyph glyph-name="ordmasculine" unicode="&#xba;" horiz-adv-x="314" 
d="M12 537q0 88 32.5 129.5t112.5 41.5q83 1 114 -40t31 -131q0 -87 -32.5 -128.5t-112.5 -41.5q-83 -1 -114 39.5t-31 130.5zM112 537q0 -54 8.5 -80t36.5 -26q25 0 35 24.5t10 81.5t-10 82t-35 25q-28 0 -36.5 -26t-8.5 -81z" />
    <glyph glyph-name="guillemotright" unicode="&#xbb;" horiz-adv-x="426" 
d="M52 88v132l79 69l-79 69v132l149 -120v-162zM225 88v132l79 69l-79 69v132l149 -120v-162z" />
    <glyph glyph-name="onequarter" unicode="&#xbc;" horiz-adv-x="721" 
d="M571 159v145h-2l-86 -145h88zM401 77v91l152 260h124v-269h44v-82h-44v-77h-106v77h-170zM96 -31l406 756h89l-406 -756h-89zM91 280v290h-91v70h8q96 0 109 68h86v-428h-112z" />
    <glyph glyph-name="onehalf" unicode="&#xbd;" horiz-adv-x="721" 
d="M72 -31l406 756h89l-406 -756h-89zM91 280v290h-91v70h8q96 0 109 68h86v-428h-112zM721 0h-312q0 116 101 188l50 36q49 36 49 81q0 20 -12 33.5t-31 13.5q-49 0 -51 -73h-106v25q0 124 160 124q77 0 114.5 -28.5t37.5 -79.5q0 -43 -14 -72t-52 -58l-57 -44
q-46 -35 -53 -64h176v-82z" />
    <glyph glyph-name="threequarters" unicode="&#xbe;" horiz-adv-x="721" 
d="M401 77v91l152 260h124v-269h44v-82h-44v-77h-106v77h-170zM483 159h88v145h-2zM135 -31l406 756h89l-406 -756h-89zM0 416h106q2 -67 49 -67q45 0 45 53q0 63 -60 63h-28v70h28q27 0 40.5 15.5t13.5 37.5q0 19 -11.5 31.5t-29.5 12.5q-46 0 -46 -60h-100q0 68 36 103
q34 33 109 33q148 0 148 -109q0 -39 -18.5 -63.5t-51.5 -31.5v-2q82 -14 82 -100q0 -129 -169 -129q-143 0 -143 133v10z" />
    <glyph glyph-name="questiondown" unicode="&#xbf;" horiz-adv-x="481" 
d="M313 45h132v-23q0 -93 -51 -149.5t-147 -56.5q-103 0 -157 51.5t-54 141.5q0 85 63 156l40 45q28 31 38.5 54.5t10.5 60.5v15h124v-39q0 -49 -14 -83.5t-48 -73.5l-38 -43q-38 -42 -38 -106q0 -39 17.5 -62t50.5 -23q71 0 71 110v25zM319 406h-138v132h138v-132z" />
    <glyph glyph-name="Agrave" unicode="&#xc0;" horiz-adv-x="556" 
d="M0 0l189 714h178l189 -714h-150l-33 151h-190l-33 -151h-150zM277 590l-69 -321h140l-69 321h-2zM343 756h-94l-98 144h138z" />
    <glyph glyph-name="Aacute" unicode="&#xc1;" horiz-adv-x="556" 
d="M0 0l189 714h178l189 -714h-150l-33 151h-190l-33 -151h-150zM277 590l-69 -321h140l-69 321h-2zM213 756l54 144h138l-98 -144h-94z" />
    <glyph glyph-name="Acircumflex" unicode="&#xc2;" horiz-adv-x="556" 
d="M0 0l189 714h178l189 -714h-150l-33 151h-190l-33 -151h-150zM277 590l-69 -321h140l-69 321h-2zM128 756l78 144h144l78 -144h-106l-46 85l-48 -85h-100z" />
    <glyph glyph-name="Atilde" unicode="&#xc3;" horiz-adv-x="556" 
d="M0 0l189 714h178l189 -714h-150l-33 151h-190l-33 -151h-150zM277 590l-69 -321h140l-69 321h-2zM191 765h-70q17 124 93 124q26 0 43 -7l48 -21q15 -6 30 -6q13 0 20.5 12t7.5 24h72q-5 -55 -30.5 -89.5t-62.5 -34.5q-23 0 -63.5 17t-55.5 17q-25 0 -32 -36z" />
    <glyph glyph-name="Adieresis" unicode="&#xc4;" horiz-adv-x="556" 
d="M0 0l189 714h178l189 -714h-150l-33 151h-190l-33 -151h-150zM277 590l-69 -321h140l-69 321h-2zM136 765v118h112v-118h-112zM308 765v118h112v-118h-112z" />
    <glyph glyph-name="Aring" unicode="&#xc5;" horiz-adv-x="556" 
d="M0 0l189 714h178l189 -714h-150l-33 151h-190l-33 -151h-150zM277 590l-69 -321h140l-69 321h-2zM164 847q0 47 33.5 80.5t80.5 33.5t80.5 -33.5t33.5 -80.5t-33.5 -80.5t-80.5 -33.5t-80.5 33.5t-33.5 80.5zM220 847q0 -24 17 -41t41 -17t41 17t17 41t-17 41t-41 17
t-41 -17t-17 -41z" />
    <glyph glyph-name="AE" unicode="&#xc6;" horiz-adv-x="759" 
d="M-5 0l269 714h463v-118h-235v-168h220v-118h-220v-192h245v-118h-383v151h-159l-50 -151h-150zM234 269h120v333h-9z" />
    <glyph glyph-name="Ccedilla" unicode="&#xc7;" horiz-adv-x="537" 
d="M214 -92l47 78q-49 2 -86.5 15.5t-61.5 38.5t-40 55t-24 74.5t-11 87t-3 100.5q0 73 4.5 123t19 100.5t40.5 80.5t71 48.5t108 18.5q59 0 102 -17.5t65 -41.5t35 -62t16 -67t3 -67h-144q0 80 -19 114.5t-67 34.5q-53 0 -71.5 -59.5t-18.5 -215.5q0 -106 10.5 -162.5
t29.5 -74.5t52 -18q29 0 47 12.5t30.5 53.5t12.5 115h144q0 -59 -8 -104t-28 -86t-58.5 -65.5t-95.5 -30.5l-30 -48q20 5 33 5q32 0 58 -20.5t26 -53.5q0 -44 -33 -69t-93 -25q-66 0 -100 19l19 46q26 -15 69 -15q21 0 35.5 10t14.5 24q0 15 -12 24.5t-32 9.5q-17 0 -34 -6z
" />
    <glyph glyph-name="Egrave" unicode="&#xc8;" horiz-adv-x="481" 
d="M50 714h399v-118h-255v-168h240v-118h-240v-192h265v-118h-409v714zM318 756h-94l-98 144h138z" />
    <glyph glyph-name="Eacute" unicode="&#xc9;" horiz-adv-x="481" 
d="M50 714h399v-118h-255v-168h240v-118h-240v-192h265v-118h-409v714zM188 756l54 144h138l-98 -144h-94z" />
    <glyph glyph-name="Ecircumflex" unicode="&#xca;" horiz-adv-x="481" 
d="M50 714h399v-118h-255v-168h240v-118h-240v-192h265v-118h-409v714zM103 756l78 144h144l78 -144h-106l-46 85l-48 -85h-100z" />
    <glyph glyph-name="Edieresis" unicode="&#xcb;" horiz-adv-x="481" 
d="M50 714h399v-118h-255v-168h240v-118h-240v-192h265v-118h-409v714zM111 765v118h112v-118h-112zM283 765v118h112v-118h-112z" />
    <glyph glyph-name="Igrave" unicode="&#xcc;" horiz-adv-x="258" 
d="M201 0h-144v714h144v-714zM194 756h-94l-98 144h138z" />
    <glyph glyph-name="Iacute" unicode="&#xcd;" horiz-adv-x="258" 
d="M201 0h-144v714h144v-714zM64 756l54 144h138l-98 -144h-94z" />
    <glyph glyph-name="Icircumflex" unicode="&#xce;" horiz-adv-x="258" 
d="M201 0h-144v714h144v-714zM-21 756l78 144h144l78 -144h-106l-46 85l-48 -85h-100z" />
    <glyph glyph-name="Idieresis" unicode="&#xcf;" horiz-adv-x="258" 
d="M201 0h-144v714h144v-714zM-13 765v118h112v-118h-112zM159 765v118h112v-118h-112z" />
    <glyph glyph-name="Eth" unicode="&#xd0;" horiz-adv-x="574" 
d="M57 0v315h-57v106h57v293h236q59 0 101.5 -16.5t68 -44.5t40.5 -73.5t20.5 -95t5.5 -117.5q0 -197 -53 -282t-192 -85h-227zM201 608v-187h93v-106h-93v-209h64q73 0 96.5 53.5t23.5 203.5q0 134 -23 189.5t-100 55.5h-61z" />
    <glyph glyph-name="Ntilde" unicode="&#xd1;" horiz-adv-x="574" 
d="M50 714h166l174 -489h2v489h132v-714h-164l-176 500h-2v-500h-132v714zM200 765h-70q17 124 93 124q26 0 43 -7l48 -21q15 -6 30 -6q13 0 20.5 12t7.5 24h72q-5 -55 -30.5 -89.5t-62.5 -34.5q-23 0 -63.5 17t-55.5 17q-25 0 -32 -36z" />
    <glyph glyph-name="Ograve" unicode="&#xd2;" horiz-adv-x="556" 
d="M35 357q0 73 4.5 123t19 100.5t40.5 80.5t71 48.5t108 18.5t108 -18.5t71 -48.5t40.5 -80.5t19 -100.5t4.5 -123t-4.5 -123t-19 -100.5t-40.5 -80.5t-71 -48.5t-108 -18.5t-108 18.5t-71 48.5t-40.5 80.5t-19 100.5t-4.5 123zM179 357q0 -152 19 -208.5t80 -56.5t80 56.5
t19 208.5q0 151 -19 208t-80 57t-80 -57t-19 -208zM343 756h-94l-98 144h138z" />
    <glyph glyph-name="Oacute" unicode="&#xd3;" horiz-adv-x="556" 
d="M35 357q0 73 4.5 123t19 100.5t40.5 80.5t71 48.5t108 18.5t108 -18.5t71 -48.5t40.5 -80.5t19 -100.5t4.5 -123t-4.5 -123t-19 -100.5t-40.5 -80.5t-71 -48.5t-108 -18.5t-108 18.5t-71 48.5t-40.5 80.5t-19 100.5t-4.5 123zM179 357q0 -152 19 -208.5t80 -56.5t80 56.5
t19 208.5q0 151 -19 208t-80 57t-80 -57t-19 -208zM213 756l54 144h138l-98 -144h-94z" />
    <glyph glyph-name="Ocircumflex" unicode="&#xd4;" horiz-adv-x="556" 
d="M35 357q0 73 4.5 123t19 100.5t40.5 80.5t71 48.5t108 18.5t108 -18.5t71 -48.5t40.5 -80.5t19 -100.5t4.5 -123t-4.5 -123t-19 -100.5t-40.5 -80.5t-71 -48.5t-108 -18.5t-108 18.5t-71 48.5t-40.5 80.5t-19 100.5t-4.5 123zM179 357q0 -152 19 -208.5t80 -56.5t80 56.5
t19 208.5q0 151 -19 208t-80 57t-80 -57t-19 -208zM128 756l78 144h144l78 -144h-106l-46 85l-48 -85h-100z" />
    <glyph glyph-name="Otilde" unicode="&#xd5;" horiz-adv-x="556" 
d="M35 357q0 73 4.5 123t19 100.5t40.5 80.5t71 48.5t108 18.5t108 -18.5t71 -48.5t40.5 -80.5t19 -100.5t4.5 -123t-4.5 -123t-19 -100.5t-40.5 -80.5t-71 -48.5t-108 -18.5t-108 18.5t-71 48.5t-40.5 80.5t-19 100.5t-4.5 123zM179 357q0 -152 19 -208.5t80 -56.5t80 56.5
t19 208.5q0 151 -19 208t-80 57t-80 -57t-19 -208zM191 765h-70q17 124 93 124q26 0 43 -7l48 -21q15 -6 30 -6q13 0 20.5 12t7.5 24h72q-5 -55 -30.5 -89.5t-62.5 -34.5q-23 0 -63.5 17t-55.5 17q-25 0 -32 -36z" />
    <glyph glyph-name="Odieresis" unicode="&#xd6;" horiz-adv-x="556" 
d="M35 357q0 73 4.5 123t19 100.5t40.5 80.5t71 48.5t108 18.5t108 -18.5t71 -48.5t40.5 -80.5t19 -100.5t4.5 -123t-4.5 -123t-19 -100.5t-40.5 -80.5t-71 -48.5t-108 -18.5t-108 18.5t-71 48.5t-40.5 80.5t-19 100.5t-4.5 123zM179 357q0 -152 19 -208.5t80 -56.5t80 56.5
t19 208.5q0 151 -19 208t-80 57t-80 -57t-19 -208zM136 765v118h112v-118h-112zM308 765v118h112v-118h-112z" />
    <glyph glyph-name="multiply" unicode="&#xd7;" horiz-adv-x="600" 
d="M59 98l156 155l-156 155l86 86l155 -156l155 156l86 -86l-156 -155l156 -155l-86 -86l-155 156l-155 -156z" />
    <glyph glyph-name="Oslash" unicode="&#xd8;" horiz-adv-x="556" 
d="M187 209l161 377q-22 36 -70 36q-61 0 -80 -57t-19 -208q0 -104 6 -148h2zM369 505l-161 -376q20 -37 70 -37q61 0 80 56.5t19 208.5q0 102 -6 148h-2zM83 -30l30 70q-46 43 -62 119.5t-16 197.5q0 73 4.5 123t19 100.5t40.5 80.5t71 48.5t108 18.5q73 0 121 -24l26 61
l48 -21l-30 -70q46 -43 62 -119.5t16 -197.5q0 -73 -4.5 -123t-19 -100.5t-40.5 -80.5t-71 -48.5t-108 -18.5q-74 0 -121 24l-26 -61z" />
    <glyph glyph-name="Ugrave" unicode="&#xd9;" horiz-adv-x="538" 
d="M41 714h144v-498q0 -59 18.5 -91.5t65.5 -32.5t65.5 32.5t18.5 91.5v498h144v-498q0 -66 -18.5 -112.5t-52 -71t-72 -35.5t-85.5 -11q-48 0 -85.5 9.5t-71.5 33.5t-52.5 71t-18.5 116v498zM334 756h-94l-98 144h138z" />
    <glyph glyph-name="Uacute" unicode="&#xda;" horiz-adv-x="538" 
d="M41 714h144v-498q0 -59 18.5 -91.5t65.5 -32.5t65.5 32.5t18.5 91.5v498h144v-498q0 -66 -18.5 -112.5t-52 -71t-72 -35.5t-85.5 -11q-48 0 -85.5 9.5t-71.5 33.5t-52.5 71t-18.5 116v498zM204 756l54 144h138l-98 -144h-94z" />
    <glyph glyph-name="Ucircumflex" unicode="&#xdb;" horiz-adv-x="538" 
d="M41 714h144v-498q0 -59 18.5 -91.5t65.5 -32.5t65.5 32.5t18.5 91.5v498h144v-498q0 -66 -18.5 -112.5t-52 -71t-72 -35.5t-85.5 -11q-48 0 -85.5 9.5t-71.5 33.5t-52.5 71t-18.5 116v498zM119 756l78 144h144l78 -144h-106l-46 85l-48 -85h-100z" />
    <glyph glyph-name="Udieresis" unicode="&#xdc;" horiz-adv-x="538" 
d="M41 714h144v-498q0 -59 18.5 -91.5t65.5 -32.5t65.5 32.5t18.5 91.5v498h144v-498q0 -66 -18.5 -112.5t-52 -71t-72 -35.5t-85.5 -11q-48 0 -85.5 9.5t-71.5 33.5t-52.5 71t-18.5 116v498zM127 765v118h112v-118h-112zM299 765v118h112v-118h-112z" />
    <glyph glyph-name="Yacute" unicode="&#xdd;" horiz-adv-x="520" 
d="M3 714h162l94 -276h2l100 276h156l-185 -433v-281h-144v281zM195 756l54 144h138l-98 -144h-94z" />
    <glyph glyph-name="Thorn" unicode="&#xde;" horiz-adv-x="519" 
d="M50 0v714h144v-128h108q69 0 115 -32t63.5 -78t17.5 -104q0 -108 -60.5 -161.5t-166.5 -53.5h-77v-157h-144zM194 480v-217h64q44 0 70 27t26 80q0 110 -100 110h-60z" />
    <glyph glyph-name="germandbls" unicode="&#xdf;" horiz-adv-x="500" 
d="M179 0h-138v527q0 104 52 152.5t160 48.5q95 0 146 -44t51 -127q0 -58 -19 -91.5t-70 -55.5v-2q111 -18 111 -192q0 -222 -179 -222q-46 0 -66 4v94q12 -4 21 -4q51 0 68.5 35.5t17.5 110.5q0 121 -80 121h-25v94h17q66 0 66 95q0 90 -66 90q-38 0 -52.5 -28t-14.5 -82
v-524z" />
    <glyph glyph-name="agrave" unicode="&#xe0;" horiz-adv-x="481" 
d="M169 373h-124v13q0 87 52 126.5t137 39.5q114 0 154.5 -41.5t40.5 -123.5v-283q0 -66 17 -104h-132q-8 15 -17 56h-2q-23 -40 -54 -55t-83 -15q-66 0 -98 46t-32 108q0 74 31.5 111t104.5 57l78 21q31 8 43 22t12 41q0 66 -64 66q-31 0 -47.5 -19t-16.5 -51v-15zM297 163
v106q-26 -19 -59 -27q-41 -9 -59.5 -30t-18.5 -57q0 -33 13 -54t39 -21q32 0 58.5 21t26.5 62zM306 601h-94l-98 144h138z" />
    <glyph glyph-name="aacute" unicode="&#xe1;" horiz-adv-x="481" 
d="M169 373h-124v13q0 87 52 126.5t137 39.5q114 0 154.5 -41.5t40.5 -123.5v-283q0 -66 17 -104h-132q-8 15 -17 56h-2q-23 -40 -54 -55t-83 -15q-66 0 -98 46t-32 108q0 74 31.5 111t104.5 57l78 21q31 8 43 22t12 41q0 66 -64 66q-31 0 -47.5 -19t-16.5 -51v-15zM297 163
v106q-26 -19 -59 -27q-41 -9 -59.5 -30t-18.5 -57q0 -33 13 -54t39 -21q32 0 58.5 21t26.5 62zM176 601l54 144h138l-98 -144h-94z" />
    <glyph glyph-name="acircumflex" unicode="&#xe2;" horiz-adv-x="481" 
d="M169 373h-124v13q0 87 52 126.5t137 39.5q114 0 154.5 -41.5t40.5 -123.5v-283q0 -66 17 -104h-132q-8 15 -17 56h-2q-23 -40 -54 -55t-83 -15q-66 0 -98 46t-32 108q0 74 31.5 111t104.5 57l78 21q31 8 43 22t12 41q0 66 -64 66q-31 0 -47.5 -19t-16.5 -51v-15zM297 163
v106q-26 -19 -59 -27q-41 -9 -59.5 -30t-18.5 -57q0 -33 13 -54t39 -21q32 0 58.5 21t26.5 62zM91 601l78 144h144l78 -144h-106l-46 85l-48 -85h-100z" />
    <glyph glyph-name="atilde" unicode="&#xe3;" horiz-adv-x="481" 
d="M169 373h-124v13q0 87 52 126.5t137 39.5q114 0 154.5 -41.5t40.5 -123.5v-283q0 -66 17 -104h-132q-8 15 -17 56h-2q-23 -40 -54 -55t-83 -15q-66 0 -98 46t-32 108q0 74 31.5 111t104.5 57l78 21q31 8 43 22t12 41q0 66 -64 66q-31 0 -47.5 -19t-16.5 -51v-15zM297 163
v106q-26 -19 -59 -27q-41 -9 -59.5 -30t-18.5 -57q0 -33 13 -54t39 -21q32 0 58.5 21t26.5 62zM154 610h-70q17 124 93 124q26 0 43 -7l48 -21q15 -6 30 -6q13 0 20.5 12t7.5 24h72q-5 -55 -30.5 -89.5t-62.5 -34.5q-23 0 -63.5 17t-55.5 17q-25 0 -32 -36z" />
    <glyph glyph-name="adieresis" unicode="&#xe4;" horiz-adv-x="481" 
d="M169 373h-124v13q0 87 52 126.5t137 39.5q114 0 154.5 -41.5t40.5 -123.5v-283q0 -66 17 -104h-132q-8 15 -17 56h-2q-23 -40 -54 -55t-83 -15q-66 0 -98 46t-32 108q0 74 31.5 111t104.5 57l78 21q31 8 43 22t12 41q0 66 -64 66q-31 0 -47.5 -19t-16.5 -51v-15zM297 163
v106q-26 -19 -59 -27q-41 -9 -59.5 -30t-18.5 -57q0 -33 13 -54t39 -21q32 0 58.5 21t26.5 62zM99 610v118h112v-118h-112zM271 610v118h112v-118h-112z" />
    <glyph glyph-name="aring" unicode="&#xe5;" horiz-adv-x="481" 
d="M169 373h-124v13q0 87 52 126.5t137 39.5q114 0 154.5 -41.5t40.5 -123.5v-283q0 -66 17 -104h-132q-8 15 -17 56h-2q-23 -40 -54 -55t-83 -15q-66 0 -98 46t-32 108q0 74 31.5 111t104.5 57l78 21q31 8 43 22t12 41q0 66 -64 66q-31 0 -47.5 -19t-16.5 -51v-15zM297 163
v106q-26 -19 -59 -27q-41 -9 -59.5 -30t-18.5 -57q0 -33 13 -54t39 -21q32 0 58.5 21t26.5 62zM127 698q0 47 33.5 80.5t80.5 33.5t80.5 -33.5t33.5 -80.5t-33.5 -80.5t-80.5 -33.5t-80.5 33.5t-33.5 80.5zM183 698q0 -24 17 -41t41 -17t41 17t17 41t-17 41t-41 17t-41 -17
t-17 -41z" />
    <glyph glyph-name="ae" unicode="&#xe6;" horiz-adv-x="722" 
d="M296 163v106q-26 -19 -59 -27q-41 -9 -59.5 -30t-18.5 -57q0 -33 13 -54t39 -21q32 0 58.5 21t26.5 62zM424 330h139q-2 68 -16 98t-53 30q-37 0 -53.5 -31.5t-16.5 -75.5v-21zM168 373h-124v13q0 87 52 126.5t137 39.5q55 0 86.5 -14t52.5 -50q15 30 49 47t78 17
q59 0 98 -18.5t60 -56.5t29.5 -85t8.5 -113v-31h-271v-43q0 -53 16 -89t51 -36q33 0 49.5 24.5t22.5 76.5h124q-8 -195 -194 -195q-124 0 -162 93q-31 -57 -68 -75t-106 -18q-66 0 -98 46t-32 108q0 74 31.5 111t104.5 57l78 21q31 8 43 22t12 41q0 66 -64 66
q-31 0 -47.5 -19t-16.5 -51v-15z" />
    <glyph glyph-name="ccedilla" unicode="&#xe7;" horiz-adv-x="463" 
d="M171 -92l47 78q-100 4 -146 67.5t-46 215.5q0 156 57 219.5t161 63.5q94 0 143.5 -55.5t49.5 -152.5h-132q0 108 -62 108q-48 0 -63.5 -41.5t-15.5 -142.5q0 -105 14.5 -146.5t59.5 -41.5q67 0 67 126h132q0 -198 -164 -218l-31 -49q20 5 33 5q32 0 58 -20.5t26 -53.5
q0 -44 -33 -69t-93 -25q-66 0 -100 19l19 46q26 -15 69 -15q21 0 35.5 10t14.5 24q0 15 -12 24.5t-32 9.5q-17 0 -34 -6z" />
    <glyph glyph-name="egrave" unicode="&#xe8;" horiz-adv-x="463" 
d="M437 248h-273v-43q0 -53 16.5 -89t51.5 -36q33 0 50 24.5t23 76.5h124q-8 -195 -195 -195q-42 0 -74.5 9.5t-54 23.5t-37 38.5t-23.5 46.5t-12.5 55t-5.5 56.5t-1 58.5q0 48 4 85t17.5 75t36.5 62.5t62.5 40t93.5 15.5q113 0 155 -68.5t42 -204.5v-31zM164 330h141
q-2 68 -16 98t-54 30q-38 0 -54.5 -31.5t-16.5 -75.5v-21zM297 601h-94l-98 144h138z" />
    <glyph glyph-name="eacute" unicode="&#xe9;" horiz-adv-x="463" 
d="M437 248h-273v-43q0 -53 16.5 -89t51.5 -36q33 0 50 24.5t23 76.5h124q-8 -195 -195 -195q-42 0 -74.5 9.5t-54 23.5t-37 38.5t-23.5 46.5t-12.5 55t-5.5 56.5t-1 58.5q0 48 4 85t17.5 75t36.5 62.5t62.5 40t93.5 15.5q113 0 155 -68.5t42 -204.5v-31zM164 330h141
q-2 68 -16 98t-54 30q-38 0 -54.5 -31.5t-16.5 -75.5v-21zM167 601l54 144h138l-98 -144h-94z" />
    <glyph glyph-name="ecircumflex" unicode="&#xea;" horiz-adv-x="463" 
d="M437 248h-273v-43q0 -53 16.5 -89t51.5 -36q33 0 50 24.5t23 76.5h124q-8 -195 -195 -195q-42 0 -74.5 9.5t-54 23.5t-37 38.5t-23.5 46.5t-12.5 55t-5.5 56.5t-1 58.5q0 48 4 85t17.5 75t36.5 62.5t62.5 40t93.5 15.5q113 0 155 -68.5t42 -204.5v-31zM164 330h141
q-2 68 -16 98t-54 30q-38 0 -54.5 -31.5t-16.5 -75.5v-21zM82 601l78 144h144l78 -144h-106l-46 85l-48 -85h-100z" />
    <glyph glyph-name="edieresis" unicode="&#xeb;" horiz-adv-x="463" 
d="M437 248h-273v-43q0 -53 16.5 -89t51.5 -36q33 0 50 24.5t23 76.5h124q-8 -195 -195 -195q-42 0 -74.5 9.5t-54 23.5t-37 38.5t-23.5 46.5t-12.5 55t-5.5 56.5t-1 58.5q0 48 4 85t17.5 75t36.5 62.5t62.5 40t93.5 15.5q113 0 155 -68.5t42 -204.5v-31zM164 330h141
q-2 68 -16 98t-54 30q-38 0 -54.5 -31.5t-16.5 -75.5v-21zM90 610v118h112v-118h-112zM262 610v118h112v-118h-112z" />
    <glyph glyph-name="igrave" unicode="&#xec;" horiz-adv-x="240" 
d="M51 0v538h138v-538h-138zM185 601h-94l-98 144h138z" />
    <glyph glyph-name="iacute" unicode="&#xed;" horiz-adv-x="240" 
d="M51 0v538h138v-538h-138zM55 601l54 144h138l-98 -144h-94z" />
    <glyph glyph-name="icircumflex" unicode="&#xee;" horiz-adv-x="240" 
d="M51 0v538h138v-538h-138zM-30 601l78 144h144l78 -144h-106l-46 85l-48 -85h-100z" />
    <glyph glyph-name="idieresis" unicode="&#xef;" horiz-adv-x="240" 
d="M51 0v538h138v-538h-138zM-22 610v118h112v-118h-112zM150 610v118h112v-118h-112z" />
    <glyph glyph-name="eth" unicode="&#xf0;" 
d="M166 262q0 -46 2 -74t9 -55.5t22.5 -40t40.5 -12.5q41 0 57.5 41.5t16.5 140.5q0 94 -16.5 135t-57.5 41q-25 0 -40.5 -12.5t-22.5 -39t-9 -53.5t-2 -71zM105 583l-39 42l76 45q-24 24 -66 64l104 61q32 -28 67 -63l75 45l43 -42l-77 -45q83 -91 123.5 -190t40.5 -231
q0 -143 -48.5 -213t-163.5 -70q-119 -2 -165.5 66.5t-46.5 216.5q0 124 43 193.5t131 69.5q38 0 70 -26l2 2q-31 50 -92 120z" />
    <glyph glyph-name="ntilde" unicode="&#xf1;" horiz-adv-x="500" 
d="M46 0v538h132v-63h2q42 77 137 77q137 0 137 -153v-399h-138v371q0 40 -14 57.5t-45 17.5q-73 0 -73 -89v-357h-138zM163 610h-70q17 124 93 124q26 0 43 -7l48 -21q15 -6 30 -6q13 0 20.5 12t7.5 24h72q-5 -55 -30.5 -89.5t-62.5 -34.5q-23 0 -63.5 17t-55.5 17
q-25 0 -32 -36z" />
    <glyph glyph-name="ograve" unicode="&#xf2;" 
d="M28 269q0 143 48.5 213t163.5 70q119 2 165.5 -66.5t46.5 -216.5q0 -143 -48.5 -213t-163.5 -70q-119 -2 -165.5 66.5t-46.5 216.5zM166 269q0 -48 2 -77t9 -57.5t22.5 -41.5t40.5 -13q41 0 57.5 43.5t16.5 145.5t-16.5 145.5t-57.5 43.5q-25 0 -40.5 -13t-22.5 -41.5
t-9 -57.5t-2 -77zM305 601h-94l-98 144h138z" />
    <glyph glyph-name="oacute" unicode="&#xf3;" 
d="M28 269q0 143 48.5 213t163.5 70q119 2 165.5 -66.5t46.5 -216.5q0 -143 -48.5 -213t-163.5 -70q-119 -2 -165.5 66.5t-46.5 216.5zM166 269q0 -48 2 -77t9 -57.5t22.5 -41.5t40.5 -13q41 0 57.5 43.5t16.5 145.5t-16.5 145.5t-57.5 43.5q-25 0 -40.5 -13t-22.5 -41.5
t-9 -57.5t-2 -77zM175 601l54 144h138l-98 -144h-94z" />
    <glyph glyph-name="ocircumflex" unicode="&#xf4;" 
d="M28 269q0 143 48.5 213t163.5 70q119 2 165.5 -66.5t46.5 -216.5q0 -143 -48.5 -213t-163.5 -70q-119 -2 -165.5 66.5t-46.5 216.5zM166 269q0 -48 2 -77t9 -57.5t22.5 -41.5t40.5 -13q41 0 57.5 43.5t16.5 145.5t-16.5 145.5t-57.5 43.5q-25 0 -40.5 -13t-22.5 -41.5
t-9 -57.5t-2 -77zM90 601l78 144h144l78 -144h-106l-46 85l-48 -85h-100z" />
    <glyph glyph-name="otilde" unicode="&#xf5;" 
d="M28 269q0 143 48.5 213t163.5 70q119 2 165.5 -66.5t46.5 -216.5q0 -143 -48.5 -213t-163.5 -70q-119 -2 -165.5 66.5t-46.5 216.5zM166 269q0 -48 2 -77t9 -57.5t22.5 -41.5t40.5 -13q41 0 57.5 43.5t16.5 145.5t-16.5 145.5t-57.5 43.5q-25 0 -40.5 -13t-22.5 -41.5
t-9 -57.5t-2 -77zM153 610h-70q17 124 93 124q26 0 43 -7l48 -21q15 -6 30 -6q13 0 20.5 12t7.5 24h72q-5 -55 -30.5 -89.5t-62.5 -34.5q-23 0 -63.5 17t-55.5 17q-25 0 -32 -36z" />
    <glyph glyph-name="odieresis" unicode="&#xf6;" 
d="M28 269q0 143 48.5 213t163.5 70q119 2 165.5 -66.5t46.5 -216.5q0 -143 -48.5 -213t-163.5 -70q-119 -2 -165.5 66.5t-46.5 216.5zM166 269q0 -48 2 -77t9 -57.5t22.5 -41.5t40.5 -13q41 0 57.5 43.5t16.5 145.5t-16.5 145.5t-57.5 43.5q-25 0 -40.5 -13t-22.5 -41.5
t-9 -57.5t-2 -77zM98 610v118h112v-118h-112zM270 610v118h112v-118h-112z" />
    <glyph glyph-name="divide" unicode="&#xf7;" horiz-adv-x="600" 
d="M47 191v124h506v-124h-506zM203 465q0 41 28.5 69t68.5 28t68.5 -28t28.5 -69t-28.5 -69t-68.5 -28t-68.5 28t-28.5 69zM203 41q0 41 28.5 69t68.5 28t68.5 -28t28.5 -69t-28.5 -69t-68.5 -28t-68.5 28t-28.5 69z" />
    <glyph glyph-name="oslash" unicode="&#xf8;" 
d="M170 186l123 238q-16 34 -53 34q-25 0 -40.5 -13t-22.5 -41.5t-9 -57.5t-2 -77q0 -59 2 -83h2zM310 351l-124 -238q16 -33 54 -33q41 0 57.5 43.5t16.5 145.5q0 36 -2 82h-2zM53 -35l37 70q-62 61 -62 234q0 143 48.5 213t163.5 70q67 1 109 -21l34 65l44 -23l-37 -70
q62 -61 62 -234q0 -143 -48.5 -213t-163.5 -70q-68 -2 -109 21l-34 -65z" />
    <glyph glyph-name="ugrave" unicode="&#xf9;" horiz-adv-x="500" 
d="M322 0v63h-2q-42 -77 -137 -77q-137 0 -137 153v399h138v-371q0 -40 14 -57.5t45 -17.5q73 0 73 89v357h138v-538h-132zM315 601h-94l-98 144h138z" />
    <glyph glyph-name="uacute" unicode="&#xfa;" horiz-adv-x="500" 
d="M322 0v63h-2q-42 -77 -137 -77q-137 0 -137 153v399h138v-371q0 -40 14 -57.5t45 -17.5q73 0 73 89v357h138v-538h-132zM185 601l54 144h138l-98 -144h-94z" />
    <glyph glyph-name="ucircumflex" unicode="&#xfb;" horiz-adv-x="500" 
d="M322 0v63h-2q-42 -77 -137 -77q-137 0 -137 153v399h138v-371q0 -40 14 -57.5t45 -17.5q73 0 73 89v357h138v-538h-132zM100 601l78 144h144l78 -144h-106l-46 85l-48 -85h-100z" />
    <glyph glyph-name="udieresis" unicode="&#xfc;" horiz-adv-x="500" 
d="M322 0v63h-2q-42 -77 -137 -77q-137 0 -137 153v399h138v-371q0 -40 14 -57.5t45 -17.5q73 0 73 89v357h138v-538h-132zM108 610v118h112v-118h-112zM280 610v118h112v-118h-112z" />
    <glyph glyph-name="yacute" unicode="&#xfd;" horiz-adv-x="444" 
d="M46 -176v103q18 -3 36 -3q68 0 74 76l-151 538h144l80 -372h2l70 372h138l-130 -502q-19 -73 -34.5 -112t-39.5 -63t-53 -30.5t-80 -6.5h-56zM157 601l54 144h138l-98 -144h-94z" />
    <glyph glyph-name="thorn" unicode="&#xfe;" horiz-adv-x="500" 
d="M184 269q0 -94 15 -135.5t58 -41.5t57.5 41.5t14.5 135.5t-14.5 135.5t-57.5 41.5t-58 -41.5t-15 -135.5zM46 -176v890h138v-233h2q34 71 116 71q85 0 125 -67t40 -216t-40 -216t-125 -67q-73 0 -116 64h-2v-226h-138z" />
    <glyph glyph-name="ydieresis" unicode="&#xff;" horiz-adv-x="444" 
d="M46 -176v103q18 -3 36 -3q68 0 74 76l-151 538h144l80 -372h2l70 372h138l-130 -502q-19 -73 -34.5 -112t-39.5 -63t-53 -30.5t-80 -6.5h-56zM80 610v118h112v-118h-112zM252 610v118h112v-118h-112z" />
    <glyph glyph-name="dotlessi" unicode="&#x131;" horiz-adv-x="240" 
d="M51 0v538h138v-538h-138z" />
    <glyph glyph-name="Lslash" unicode="&#x141;" horiz-adv-x="463" 
d="M50 0v256l-50 -31v106l50 31v352h144v-262l126 79v-106l-126 -79v-228h255v-118h-399z" />
    <glyph glyph-name="lslash" unicode="&#x142;" horiz-adv-x="240" 
d="M51 0v282l-63 -42v88l63 42v344h138v-253l63 41v-88l-63 -41v-373h-138z" />
    <glyph glyph-name="OE" unicode="&#x152;" horiz-adv-x="778" 
d="M748 714v-118h-242v-168h227v-118h-227v-192h250v-118h-373v41h-2q-11 -25 -47.5 -40t-75.5 -15q-51 0 -89 14t-62 43t-39 60.5t-22 79.5t-9 87t-2 95q0 62 4.5 109.5t18 97.5t36.5 82.5t63 53t94 20.5q99 0 130 -52h2v38h365zM179 357q0 -152 18.5 -208.5t80.5 -56.5
q60 0 75 51.5t15 213.5q0 57 -0.5 90t-3.5 67.5t-9 51t-16 31.5t-24.5 20t-36.5 5q-62 0 -80.5 -56.5t-18.5 -208.5z" />
    <glyph glyph-name="oe" unicode="&#x153;" horiz-adv-x="741" 
d="M712 248h-273v-43q0 -53 16.5 -89t51.5 -36q33 0 50 24.5t23 76.5h124q-8 -195 -187 -195q-110 0 -140 79q-14 -37 -54.5 -58t-93.5 -21q-111 0 -155.5 68t-44.5 215q0 143 48.5 213t163.5 70q103 0 143 -75q20 36 55 55.5t76 19.5q113 0 155 -68.5t42 -204.5v-31z
M243 80q40 0 56 43.5t16 145.5t-16.5 145.5t-57.5 43.5q-25 0 -40.5 -13t-22.5 -41.5t-9 -57.5t-2 -77t2 -77t9.5 -57.5t23.5 -41.5t41 -13zM439 330h141q-2 68 -16 98t-54 30q-38 0 -54.5 -31.5t-16.5 -75.5v-21z" />
    <glyph glyph-name="Scaron" unicode="&#x160;" horiz-adv-x="519" 
d="M22 223h144v-21q0 -55 20.5 -82.5t74.5 -27.5q36 0 61 23t25 65q0 47 -27 71.5t-101 50.5q-100 34 -143.5 82t-43.5 134q0 102 58.5 156t162.5 54q102 0 161.5 -47t59.5 -145v-20h-138q0 106 -78 106q-82 0 -82 -83q0 -35 15 -56.5t59 -40.5l111 -48q78 -34 107 -77
t29 -112q0 -219 -248 -219q-119 0 -173 53t-54 155v29zM188 756l-78 144h106l46 -85l48 85h100l-78 -144h-144z" />
    <glyph glyph-name="scaron" unicode="&#x161;" horiz-adv-x="444" 
d="M23 176h124v-18q0 -36 18.5 -57t53.5 -21q32 0 51 16.5t19 47.5q0 42 -50 61l-97 35q-115 41 -115 150q0 72 48.5 117t149.5 45q184 0 184 -153v-22h-124q0 42 -14 61.5t-47 19.5q-28 0 -46.5 -15.5t-18.5 -42.5q0 -43 60 -63l83 -28q65 -22 92 -57.5t27 -96.5
q0 -82 -55 -125.5t-145 -43.5q-110 0 -154 43.5t-44 127.5v19zM150 601l-78 144h106l46 -85l48 85h100l-78 -144h-144z" />
    <glyph glyph-name="Ydieresis" unicode="&#x178;" horiz-adv-x="520" 
d="M3 714h162l94 -276h2l100 276h156l-185 -433v-281h-144v281zM118 765v118h112v-118h-112zM290 765v118h112v-118h-112z" />
    <glyph glyph-name="Zcaron" unicode="&#x17d;" horiz-adv-x="481" 
d="M24 0v105l263 491h-245v118h411v-109l-267 -487h271v-118h-433zM169 756l-78 144h106l46 -85l48 85h100l-78 -144h-144z" />
    <glyph glyph-name="zcaron" unicode="&#x17e;" horiz-adv-x="426" 
d="M24 0v106l215 320h-205v112h368v-106l-215 -320h215v-112h-378zM141 601l-78 144h106l46 -85l48 85h100l-78 -144h-144z" />
    <glyph glyph-name="florin" unicode="&#x192;" 
d="M64 346l16 82h105l17 89q21 109 64 153t134 44q40 0 75 -3l-19 -94q-10 3 -28 3q-47 0 -64 -23t-32 -96l-15 -73h110l-15 -82h-111l-65 -342q-17 -93 -59 -136.5t-140 -43.5q-52 0 -72 7l20 91q16 -4 35 -4q42 0 58 20.5t27 77.5l64 330h-105z" />
    <glyph glyph-name="circumflex" unicode="&#x2c6;" horiz-adv-x="222" 
d="M-39 601l78 144h144l78 -144h-106l-46 85l-48 -85h-100z" />
    <glyph glyph-name="caron" unicode="&#x2c7;" horiz-adv-x="222" 
d="M39 601l-78 144h106l46 -85l48 85h100l-78 -144h-144z" />
    <glyph glyph-name="uni02C9" unicode="&#x2c9;" horiz-adv-x="222" 
d="M-36 714h294v-76h-294v76z" />
    <glyph glyph-name="breve" unicode="&#x2d8;" horiz-adv-x="222" 
d="M-28 745h65q3 -28 24 -46.5t50 -18.5t50 18.5t24 46.5h65q-1 -52 -34 -96.5t-105 -44.5t-105 44.5t-34 96.5z" />
    <glyph glyph-name="dotaccent" unicode="&#x2d9;" horiz-adv-x="222" 
d="M55 728h112v-118h-112v118z" />
    <glyph glyph-name="ring" unicode="&#x2da;" horiz-adv-x="222" 
d="M-3 698q0 47 33.5 80.5t80.5 33.5t80.5 -33.5t33.5 -80.5t-33.5 -80.5t-80.5 -33.5t-80.5 33.5t-33.5 80.5zM53 698q0 -24 17 -41t41 -17t41 17t17 41t-17 41t-41 17t-41 -17t-17 -41z" />
    <glyph glyph-name="ogonek" unicode="&#x2db;" horiz-adv-x="222" 
d="M210 -144l19 -57q-43 -23 -109 -23q-51 0 -73.5 24.5t-22.5 61.5q0 92 123 138h67q-61 -44 -81.5 -69t-20.5 -51q0 -17 10.5 -28.5t28.5 -11.5q30 0 59 16z" />
    <glyph glyph-name="tilde" unicode="&#x2dc;" horiz-adv-x="222" 
d="M24 610h-70q17 124 93 124q26 0 43 -7l48 -21q15 -6 30 -6q13 0 20.5 12t7.5 24h72q-5 -55 -30.5 -89.5t-62.5 -34.5q-23 0 -63.5 17t-55.5 17q-25 0 -32 -36z" />
    <glyph glyph-name="hungarumlaut" unicode="&#x2dd;" horiz-adv-x="222" 
d="M-37 601l54 144h138l-98 -144h-94zM129 601l54 144h138l-98 -144h-94z" />
    <glyph glyph-name="uni03A9" unicode="&#x3a9;" horiz-adv-x="599" 
d="M144 101v3q-102 120 -102 283q0 134 72.5 227t187.5 93q61 0 110 -28.5t79 -74.5t46 -99.5t16 -108.5q0 -88 -29.5 -166t-72.5 -126v-3h115v-101h-225v73q39 32 66 107.5t27 186.5q0 99 -34.5 166.5t-99.5 67.5q-63 0 -100.5 -66.5t-37.5 -172.5q0 -104 27.5 -181.5
t66.5 -107.5v-73h-226v101h114z" />
    <glyph glyph-name="uni03BC" unicode="&#x3bc;" horiz-adv-x="500" 
d="M316 181v357h138v-538h-132v63h-2q-21 -38 -50 -57.5t-56 -19.5q-18 0 -30 8v-170h-138v714h138v-371q0 -40 14 -57.5t45 -17.5q73 0 73 89z" />
    <glyph glyph-name="pi" unicode="&#x3c0;" horiz-adv-x="529" 
d="M508 417h-60v-278q0 -86 12 -139h-114q-16 32 -16 136v281h-114q-4 -91 -19 -215t-38 -202h-113q22 89 37.5 211t16.5 206q-50 0 -82 -9l-13 83q42 33 146 33h365z" />
    <glyph glyph-name="uni2010" unicode="&#x2010;" horiz-adv-x="370" 
d="M44 348h282v-118h-282v118z" />
    <glyph glyph-name="endash" unicode="&#x2013;" horiz-adv-x="500" 
d="M0 233v112h500v-112h-500z" />
    <glyph glyph-name="emdash" unicode="&#x2014;" horiz-adv-x="1000" 
d="M0 233v112h1000v-112h-1000z" />
    <glyph glyph-name="quoteleft" unicode="&#x2018;" horiz-adv-x="260" 
d="M64 393v130q0 88 28.5 136t103.5 55v-70q-25 -4 -38.5 -26.5t-13.5 -52.5v-16h52v-156h-132z" />
    <glyph glyph-name="quoteright" unicode="&#x2019;" horiz-adv-x="260" 
d="M196 714v-130q0 -88 -28.5 -136t-103.5 -55v70q25 4 38.5 26.5t13.5 52.5v16h-52v156h132z" />
    <glyph glyph-name="quotesinglbase" unicode="&#x201a;" horiz-adv-x="260" 
d="M64 156h132v-130q0 -88 -28.5 -136t-103.5 -55v70q25 4 38.5 26.5t13.5 52.5v16h-52v156z" />
    <glyph glyph-name="quotedblleft" unicode="&#x201c;" horiz-adv-x="463" 
d="M263 393v130q0 88 28.5 136t103.5 55v-70q-25 -4 -38.5 -26.5t-13.5 -52.5v-16h52v-156h-132zM68 393v130q0 88 28.5 136t103.5 55v-70q-25 -4 -38.5 -26.5t-13.5 -52.5v-16h52v-156h-132z" />
    <glyph glyph-name="quotedblright" unicode="&#x201d;" horiz-adv-x="463" 
d="M68 558v156h132v-130q0 -88 -28.5 -136t-103.5 -55v70q25 4 38.5 26.5t13.5 52.5v16h-52zM263 558v156h132v-130q0 -88 -28.5 -136t-103.5 -55v70q25 4 38.5 26.5t13.5 52.5v16h-52z" />
    <glyph glyph-name="quotedblbase" unicode="&#x201e;" horiz-adv-x="463" 
d="M263 0v156h132v-130q0 -88 -28.5 -136t-103.5 -55v70q25 4 38.5 26.5t13.5 52.5v16h-52zM68 0v156h132v-130q0 -88 -28.5 -136t-103.5 -55v70q25 4 38.5 26.5t13.5 52.5v16h-52z" />
    <glyph glyph-name="dagger" unicode="&#x2020;" 
d="M171 516v198h138v-198h168v-112h-168v-542h-138v542h-168v112h168z" />
    <glyph glyph-name="daggerdbl" unicode="&#x2021;" 
d="M171 -138v190h-168v112h168v248h-168v112h168v190h138v-190h168v-112h-168v-248h168v-112h-168v-190h-138z" />
    <glyph glyph-name="bullet" unicode="&#x2022;" horiz-adv-x="500" 
d="M72 357q0 73 52 125.5t126 52.5t126 -52.5t52 -125.5t-52 -125.5t-126 -52.5t-126 52.5t-52 125.5z" />
    <glyph glyph-name="ellipsis" unicode="&#x2026;" horiz-adv-x="1000" 
d="M101 156h132v-156h-132v156zM434 156h132v-156h-132v156zM767 156h132v-156h-132v156z" />
    <glyph glyph-name="perthousand" unicode="&#x2030;" horiz-adv-x="1093" 
d="M872 181q0 -66 8 -92.5t36 -26.5t36 26.5t8 92.5q0 60 -8 85.5t-36 25.5t-36 -25.5t-8 -85.5zM766 177q0 103 30.5 147t119.5 44t119.5 -44t30.5 -147t-30.5 -147t-119.5 -44t-119.5 44t-30.5 147zM27 517q0 103 30.5 147t119.5 44t119.5 -44t30.5 -147t-30.5 -147
t-119.5 -44t-119.5 44t-30.5 147zM133 521q0 -66 8 -92.5t36 -26.5t36 26.5t8 92.5q0 60 -8 85.5t-36 25.5t-36 -25.5t-8 -85.5zM428 177q0 103 30.5 147t119.5 44t119.5 -44t30.5 -147t-30.5 -147t-119.5 -44t-119.5 44t-30.5 147zM534 181q0 -66 8 -92.5t36 -26.5t36 26.5
t8 92.5q0 60 -8 85.5t-36 25.5t-36 -25.5t-8 -85.5zM128 -31l406 756h89l-406 -756h-89z" />
    <glyph glyph-name="guilsinglleft" unicode="&#x2039;" horiz-adv-x="241" 
d="M46 208v162l149 120v-132l-79 -69l79 -69v-132z" />
    <glyph glyph-name="guilsinglright" unicode="&#x203a;" horiz-adv-x="241" 
d="M46 88v132l79 69l-79 69v132l149 -120v-162z" />
    <glyph glyph-name="fraction" unicode="&#x2044;" horiz-adv-x="167" 
d="M-164 -31l406 756h89l-406 -756h-89z" />
    <glyph glyph-name="Euro" unicode="&#x20ac;" 
d="M479 661l-46 -100q-48 51 -99 51q-57 0 -78 -49q-13 -30 -17 -98h168l-29 -78h-142v-51h132l-29 -78h-101q3 -78 13 -108q19 -61 76 -61q52 0 129 67v-125q-76 -45 -151 -45q-202 0 -210 272h-69l29 78h38l1 51h-68l30 78h41q21 246 228 246q89 0 154 -50z" />
    <glyph glyph-name="afii61289" unicode="&#x2113;" horiz-adv-x="449" 
d="M388 171l46 -49q-61 -133 -179 -133q-80 0 -119 47t-43 120v12q-8 -7 -24.5 -21.5t-21.5 -18.5l-28 65q9 9 24.5 23t27 25t21.5 22v256q0 120 46 182.5t115 62.5q60 0 90 -48t30 -127q0 -156 -167 -339l1 -52q0 -55 20.5 -83.5t54.5 -28.5q57 0 106 85zM206 509v-144
q99 131 99 232q0 78 -46 78q-53 0 -53 -166z" />
    <glyph glyph-name="trademark" unicode="&#x2122;" horiz-adv-x="990" 
d="M842 300v284h-2l-95 -284h-100l-95 284h-2v-284h-106v414h169l83 -250h2l83 250h169v-414h-106zM143 300v320h-112v94h336v-94h-112v-320h-112z" />
    <glyph glyph-name="Omega" unicode="&#x2126;" horiz-adv-x="599" 
d="M144 101v3q-102 120 -102 283q0 134 72.5 227t187.5 93q61 0 110 -28.5t79 -74.5t46 -99.5t16 -108.5q0 -88 -29.5 -166t-72.5 -126v-3h115v-101h-225v73q39 32 66 107.5t27 186.5q0 99 -34.5 166.5t-99.5 67.5q-63 0 -100.5 -66.5t-37.5 -172.5q0 -104 27.5 -181.5
t66.5 -107.5v-73h-226v101h114z" />
    <glyph glyph-name="estimated" unicode="&#x212e;" horiz-adv-x="870" 
d="M836 337h-650q-5 0 -5 -4v-197q0 -13 9 -22q104 -107 245 -107q76 0 143 32t116 87h57q-54 -64 -138 -101.5t-179 -37.5q-166 0 -283 105.5t-117 254.5t117 255t283 106t284 -106t118 -255v-10zM688 363v197q0 14 -9 24q-104 102 -244 102t-244 -106q-10 -9 -10 -24v-193
q0 -7 5 -7h498q4 0 4 7z" />
    <glyph glyph-name="partialdiff" unicode="&#x2202;" horiz-adv-x="508" 
d="M94 635l-32 96q69 55 160 55q102 0 171.5 -96.5t69.5 -279.5q0 -197 -64.5 -308t-181.5 -111q-85 0 -133.5 70.5t-48.5 163.5q0 120 56 191.5t136 71.5q44 0 75.5 -21.5t44.5 -45.5h1v32q0 91 -39.5 160.5t-102.5 69.5q-62 0 -112 -48zM228 96h1q44 0 73 66.5t36 152.5
q-7 26 -31 49.5t-58 23.5q-43 0 -70 -50.5t-27 -118.5q0 -54 20.5 -88.5t55.5 -34.5z" />
    <glyph glyph-name="Delta" unicode="&#x2206;" horiz-adv-x="571" 
d="M24 0v73l196 637h139l186 -635v-75h-521zM144 100h279l-88 279q-7 29 -25.5 95t-23.5 87h-2q-4 -20 -22 -80.5t-24 -87.5z" />
    <glyph glyph-name="product" unicode="&#x220f;" horiz-adv-x="638" 
d="M612 583h-85v-679h-118v679h-181v-679h-118v679h-86v113h588v-113z" />
    <glyph glyph-name="summation" unicode="&#x2211;" horiz-adv-x="487" 
d="M470 -96h-447v82l209 316l-203 307v87h427v-103h-273v-3l180 -265l-202 -302v-3h309v-116z" />
    <glyph glyph-name="minus" unicode="&#x2212;" horiz-adv-x="600" 
d="M47 191v124h506v-124h-506z" />
    <glyph glyph-name="uni2215" unicode="&#x2215;" horiz-adv-x="167" 
d="M-164 -31l406 756h89l-406 -756h-89z" />
    <glyph glyph-name="uni2219" unicode="&#x2219;" horiz-adv-x="240" 
d="M23 282q0 40 28.5 68.5t68.5 28.5t68.5 -28.5t28.5 -68.5t-28.5 -68.5t-68.5 -28.5t-68.5 28.5t-28.5 68.5z" />
    <glyph glyph-name="radical" unicode="&#x221a;" horiz-adv-x="529" 
d="M532 838l-196 -974h-94l-127 435l-66 -26l-19 70l157 63l84 -300q3 -16 9 -48.5t8 -43.5l2 -2q13 92 14 100l147 726h81z" />
    <glyph glyph-name="infinity" unicode="&#x221e;" horiz-adv-x="722" 
d="M677 288v-1q0 -74 -44.5 -118.5t-105.5 -44.5q-44 0 -82.5 23t-81.5 82q-41 -51 -80.5 -78t-91.5 -27q-60 0 -103.5 44.5t-43.5 113.5q0 71 44 116.5t111 45.5q88 0 166 -103q1 1 11.5 13t13 14.5t12.5 13.5t14.5 14.5t15 12t17.5 12l18 9t20.5 8t21.5 4.5t24 2
q62 -1 103 -44t41 -112zM199 190h2q24 0 48.5 15t38 29.5t38.5 44.5q-45 60 -66 76q-29 23 -64 23q-40 0 -62 -27t-22 -70q0 -38 25 -64.5t62 -26.5zM526 378h-1q-13 0 -27 -5.5t-23.5 -10t-23.5 -18.5t-18 -18.5t-19 -21.5l-15 -18q43 -55 69.5 -75.5t61.5 -20.5
q36 0 57.5 29t21.5 63q0 42 -22.5 69t-60.5 27z" />
    <glyph glyph-name="integral" unicode="&#x222b;" horiz-adv-x="373" 
d="M345 851l-12 -87q-18 8 -31 8q-27 0 -44 -25q-24 -34 -24 -168q0 -79 6.5 -233t6.5 -246q0 -135 -32 -201q-34 -71 -121 -71q-41 0 -69 15l15 90q23 -10 37 -10q26 0 38 20q23 35 23 154q0 93 -6.5 251t-6.5 242q0 88 12.5 139.5t41.5 85.5q39 46 110 46q34 0 56 -10z
" />
    <glyph glyph-name="approxequal" unicode="&#x2248;" horiz-adv-x="487" 
d="M410 441l42 -37q-21 -45 -52.5 -72.5t-68.5 -27.5q-42 0 -99 37q-45 32 -76 32q-18 0 -34 -11.5t-23.5 -22t-21.5 -33.5l-43 36q19 44 53.5 71.5t75.5 27.5q13 0 24 -2t22.5 -7t17.5 -7.5t17.5 -9.5t12.5 -8q4 -2 14.5 -8.5t14 -9t11.5 -6.5t12.5 -5.5t11 -3t12.5 -1.5
q23 0 40 16.5t37 51.5zM410 266l42 -37q-20 -44 -51.5 -71.5t-70.5 -27.5q-40 0 -98 36q-49 33 -76 33q-14 0 -25.5 -5t-22 -17.5t-15.5 -20t-16 -25.5l-43 37q20 44 53.5 71t74.5 27q11 0 21.5 -2t18 -4t17.5 -6.5t14 -6.5t13 -7.5t11 -6.5q5 -3 16 -10.5t16 -10t13.5 -7
t16 -6t14.5 -1.5q23 0 40 16.5t37 51.5z" />
    <glyph glyph-name="notequal" unicode="&#x2260;" horiz-adv-x="487" 
d="M360 497l-34 -81h117v-71h-142l-52 -126h194v-70h-219l-43 -103l-54 21l34 82h-118v70h143l52 126h-195v71h220l42 101z" />
    <glyph glyph-name="lessequal" unicode="&#x2264;" horiz-adv-x="487" 
d="M441 99l-393 211v77l392 211v-84l-325 -164v-2l326 -165v-84zM445 -9h-400v72h400v-72z" />
    <glyph glyph-name="greaterequal" unicode="&#x2265;" horiz-adv-x="487" 
d="M50 598l393 -211v-77l-392 -211v84l325 165v2l-326 164v84zM444 -9h-399v72h399v-72z" />
    <glyph glyph-name="lozenge" unicode="&#x25ca;" horiz-adv-x="529" 
d="M483 348l-174 -394h-97l-166 394l173 394h97zM377 345l-92 227q-12 34 -17 66h-4q-7 -37 -18 -66l-95 -222l94 -231q9 -29 16 -63h4q7 35 16 61z" />
    <glyph glyph-name="fi" unicode="&#xfb01;" horiz-adv-x="537" 
d="M348 0v538h138v-538h-138zM348 604v118h138v-118h-138zM76 0v444h-70v94h70v61q0 70 36.5 99.5t107.5 29.5q36 0 74 -3v-98q-9 1 -27 1q-29 0 -41 -10t-12 -33v-47h80v-94h-80v-444h-138z" />
    <glyph glyph-name="fl" unicode="&#xfb02;" horiz-adv-x="537" 
d="M348 0v722h138v-722h-138zM76 0v444h-70v94h70v61q0 70 36.5 99.5t107.5 29.5q36 0 74 -3v-98q-9 1 -27 1q-29 0 -41 -10t-12 -33v-47h80v-94h-80v-444h-138z" />
    <glyph glyph-name="a.superior" horiz-adv-x="314" 
d="M293 609v-172q0 -39 11 -63h-100q-3 5 -11 35q-16 -25 -36.5 -33.5t-57.5 -8.5q-46 0 -67.5 27t-21.5 65q0 46 20.5 69t68.5 33l58 12q36 8 36 34q0 37 -37 37q-20 0 -30.5 -11t-10.5 -28v-9h-94v13q0 99 137 99q80 0 107.5 -25t27.5 -74zM193 478v59q-15 -11 -35 -15
q-48 -10 -48 -49q0 -42 32 -42q19 0 35 12t16 35z" />
    <glyph glyph-name="o.superior" horiz-adv-x="314" 
d="M12 537q0 88 32.5 129.5t112.5 41.5q83 1 114 -40t31 -131q0 -87 -32.5 -128.5t-112.5 -41.5q-83 -1 -114 39.5t-31 130.5zM112 537q0 -54 8.5 -80t36.5 -26q25 0 35 24.5t10 81.5t-10 82t-35 25q-28 0 -36.5 -26t-8.5 -81z" />
    <glyph glyph-name="one.superior" horiz-adv-x="312" 
d="M115 280v290h-91v70h8q96 0 109 68h86v-428h-112z" />
    <glyph glyph-name="two.superior" horiz-adv-x="312" 
d="M312 280h-312q0 116 101 188l50 36q49 36 49 81q0 20 -12 33.5t-31 13.5q-49 0 -51 -73h-106v25q0 124 160 124q77 0 114.5 -28.5t37.5 -79.5q0 -43 -14 -72t-52 -58l-57 -44q-46 -35 -53 -64h176v-82z" />
    <glyph glyph-name="three.superior" horiz-adv-x="312" 
d="M0 416h106q2 -67 49 -67q45 0 45 53q0 63 -60 63h-28v70h28q27 0 40.5 15.5t13.5 37.5q0 19 -11.5 31.5t-29.5 12.5q-46 0 -46 -60h-100q0 68 36 103q34 33 109 33q148 0 148 -109q0 -39 -18.5 -63.5t-51.5 -31.5v-2q82 -14 82 -100q0 -129 -169 -129q-143 0 -143 133v10
z" />
    </font>
</defs>
</svg>
